<?xml version="1.0" encoding="UTF-8"?>
<svg xmlns="http://www.w3.org/2000/svg" xmlns:xlink="http://www.w3.org/1999/xlink" width="17px" height="17px" viewBox="0 0 17 17" version="1.1">
<g id="surface1">
<path style=" stroke:none;fill-rule:nonzero;fill:rgb(0%,0%,0%);fill-opacity:1;" d="M 15.9375 9.5625 C 15.65625 9.5625 15.386719 9.675781 15.1875 9.875 C 14.988281 10.074219 14.875 10.34375 14.875 10.625 L 14.875 13.8125 L 2.125 13.8125 L 2.125 10.625 C 2.125 10.039062 1.648438 9.5625 1.0625 9.5625 C 0.476562 9.5625 0 10.039062 0 10.625 L 0 14.875 C 0 15.15625 0.113281 15.425781 0.3125 15.625 C 0.511719 15.824219 0.78125 15.9375 1.0625 15.9375 L 15.9375 15.9375 C 16.21875 15.9375 16.488281 15.824219 16.6875 15.625 C 16.886719 15.425781 17 15.15625 17 14.875 L 17 10.625 C 17 10.34375 16.886719 10.074219 16.6875 9.875 C 16.488281 9.675781 16.21875 9.5625 15.9375 9.5625 Z M 15.9375 9.5625 "/>
<path style=" stroke:none;fill-rule:nonzero;fill:rgb(0%,0%,0%);fill-opacity:1;" d="M 7.75 11.375 C 8.164062 11.792969 8.835938 11.792969 9.25 11.375 L 12.4375 8.1875 C 12.851562 7.773438 12.851562 7.101562 12.4375 6.6875 C 12.023438 6.273438 11.351562 6.273438 10.9375 6.6875 L 9.5625 8.058594 L 9.5625 2.125 C 9.5625 1.539062 9.085938 1.0625 8.5 1.0625 C 7.914062 1.0625 7.4375 1.539062 7.4375 2.125 L 7.4375 8.058594 L 6.0625 6.6875 C 5.648438 6.273438 4.976562 6.273438 4.5625 6.6875 C 4.148438 7.101562 4.148438 7.773438 4.5625 8.1875 Z M 7.75 11.375 "/>
</g>
</svg>
