<?xml version="1.0" standalone="no"?>
<!DOCTYPE svg PUBLIC "-//W3C//DTD SVG 20010904//EN"
 "http://www.w3.org/TR/2001/REC-SVG-20010904/DTD/svg10.dtd">
<svg version="1.0" xmlns="http://www.w3.org/2000/svg"
 width="512.000000pt" height="512.000000pt" viewBox="0 0 512.000000 512.000000"
 preserveAspectRatio="xMidYMid meet">

<g transform="translate(0.000000,512.000000) scale(0.100000,-0.100000)"
fill="#5fbff9" stroke="none">
<path d="M1020 4893 c0 -69 -29 -175 -71 -260 -31 -66 -58 -103 -117 -163 -43
-42 -96 -89 -120 -104 -72 -45 -182 -84 -274 -97 l-88 -12 0 -1390 0 -1390 67
-76 c460 -519 968 -901 1430 -1075 258 -97 440 -130 718 -131 192 0 222 3 350
29 434 88 854 308 1270 665 139 119 368 345 486 477 l99 112 0 1389 0 1390
-87 12 c-223 31 -416 169 -511 364 -39 79 -72 203 -72 267 l0 30 -1540 0
-1540 0 0 -37z m3024 -9 c9 -3 16 -18 16 -33 0 -53 32 -158 71 -236 41 -83
103 -163 174 -226 44 -40 166 -119 183 -119 5 0 12 -7 16 -15 4 -12 -4 -11
-47 5 -197 75 -372 296 -420 531 l-12 60 -1465 0 -1465 0 -13 -63 c-25 -128
-77 -233 -169 -346 -77 -94 -293 -228 -293 -182 0 6 5 10 11 10 26 0 166 98
226 159 105 106 183 258 199 391 4 30 12 58 18 62 13 9 2947 11 2970 2z m-114
-254 c91 -248 273 -433 525 -536 l80 -32 3 -1254 2 -1254 -113 -120 c-528
-558 -1013 -873 -1517 -985 -379 -84 -772 -26 -1175 171 -347 171 -679 429
-1043 814 l-112 119 2 1254 3 1254 80 33 c278 115 444 297 550 604 4 10 278
12 1346 10 l1341 -3 28 -75z m655 -3279 c-8 -17 -81 -97 -162 -178 -365 -367
-717 -618 -1098 -781 -98 -42 -283 -99 -395 -122 -733 -148 -1488 155 -2223
893 -70 71 -139 144 -153 163 -55 72 -12 40 112 -82 264 -260 452 -418 664
-558 424 -282 817 -415 1225 -416 175 0 280 13 448 55 487 121 925 398 1451
918 76 75 141 137 143 137 2 0 -3 -13 -12 -29z"/>
<path d="M1352 4078 l3 -263 64 -3 64 -3 -6 137 c-4 75 -7 195 -7 266 l0 128
-60 0 -60 0 2 -262z"/>
<path d="M1690 4295 l0 -44 123 -3 122 -3 3 -217 2 -218 60 0 60 0 2 218 3
217 118 3 117 3 0 44 0 45 -305 0 -305 0 0 -45z"/>
<path d="M2510 4167 c0 -96 3 -215 6 -265 l7 -92 58 0 59 0 0 100 0 100 56 0
56 0 108 -100 108 -101 85 3 85 3 -116 95 -117 95 67 5 c97 7 112 24 117 137
2 48 -2 103 -9 125 -19 64 -39 68 -325 68 l-245 0 0 -173z m441 73 c15 -9 19
-22 19 -63 0 -29 -5 -58 -12 -65 -8 -8 -59 -12 -164 -12 -129 0 -153 2 -158
16 -8 20 -8 63 0 103 l7 31 144 0 c80 0 153 -5 164 -10z"/>
<path d="M3383 4330 c-12 -5 -26 -18 -32 -29 -12 -22 -15 -101 -3 -101 4 -1
26 -5 50 -9 l42 -8 0 33 0 34 150 0 150 0 11 -27 c6 -15 8 -42 4 -59 -6 -37
-28 -44 -136 -44 l-69 0 0 -40 0 -40 99 0 c114 0 131 -9 131 -68 0 -66 -2 -67
-180 -70 l-160 -3 0 40 c0 23 -1 41 -2 41 -2 -1 -25 -7 -53 -14 -40 -11 -51
-18 -53 -37 -6 -40 16 -95 43 -107 35 -16 434 -16 468 -1 35 16 47 49 47 128
0 79 -20 115 -71 126 l-31 7 31 19 c49 30 64 96 41 181 -8 27 -18 39 -42 47
-37 13 -403 14 -435 1z"/>
<path d="M1592 3518 c-8 -8 -12 -47 -12 -110 l0 -98 -35 -17 -35 -17 -74 72
c-41 40 -78 72 -82 72 -5 0 -66 -57 -136 -127 l-128 -128 76 -76 76 -76 -21
-42 -21 -41 -100 0 c-85 0 -101 -3 -108 -17 -4 -10 -6 -91 -4 -180 l4 -163
102 0 101 0 26 -57 26 -58 -73 -75 -74 -75 120 -120 120 -120 77 76 78 76 52
-21 53 -21 0 -107 0 -108 168 0 c117 0 172 4 180 12 8 8 12 48 12 116 l0 103
37 15 36 16 77 -77 77 -76 126 128 127 128 -165 163 c-91 90 -169 160 -175
157 -5 -3 -21 -29 -35 -58 -37 -73 -70 -105 -144 -139 -59 -27 -73 -30 -150
-26 -71 2 -96 8 -145 33 -114 58 -189 176 -188 296 1 195 119 321 302 323 104
1 166 -22 239 -89 31 -30 66 -72 76 -94 10 -23 21 -41 25 -41 3 0 83 78 178
173 l172 172 -115 115 -115 115 -77 -76 -78 -76 -52 21 -53 21 0 108 0 107
-168 0 c-117 0 -172 -4 -180 -12z"/>
<path d="M2994 3356 c-17 -7 -51 -37 -75 -65 l-44 -51 -126 0 c-121 0 -127 -1
-170 -29 -46 -30 -124 -109 -199 -204 -45 -56 -157 -149 -217 -181 -19 -9 -56
-16 -88 -16 l-55 0 -24 53 c-25 57 -71 109 -119 133 -49 26 -139 30 -194 9
-65 -25 -146 -110 -168 -176 -22 -65 -16 -158 13 -215 24 -47 81 -100 128
-120 47 -20 141 -17 189 5 46 20 142 121 151 157 l6 25 259 -3 258 -3 73 -51
c70 -48 97 -78 243 -265 31 -39 72 -77 105 -96 54 -33 56 -33 182 -33 l128 0
0 -60 0 -60 178 2 177 3 3 188 2 187 -168 0 c-117 0 -172 -4 -180 -12 -7 -7
-12 -38 -12 -70 l0 -58 -104 0 -104 0 -54 45 c-30 24 -96 98 -146 165 l-92
120 520 0 520 0 0 -51 c0 -28 3 -49 8 -47 154 68 336 162 339 174 2 6 -70 45
-159 87 -150 69 -164 74 -181 59 -12 -10 -17 -27 -15 -51 l3 -36 -723 -3
c-445 -1 -722 1 -720 7 1 5 23 31 48 58 25 26 74 83 109 126 93 112 103 117
253 117 l125 0 24 -37 c14 -23 43 -47 71 -61 66 -33 116 -24 175 31 58 53 73
84 73 150 0 59 -23 104 -72 140 -34 25 -113 32 -154 13z"/>
<path d="M3032 1599 c-7 -12 -11 -23 -8 -27 7 -6 46 27 46 40 0 16 -25 8 -38
-13z"/>
<path d="M960 1475 c0 -68 2 -75 20 -75 18 0 20 7 20 75 0 68 -2 75 -20 75
-18 0 -20 -7 -20 -75z"/>
<path d="M1070 1474 c0 -66 2 -75 18 -72 12 2 18 16 22 46 l5 42 55 -45 c30
-24 61 -44 68 -45 8 0 12 21 12 75 0 68 -2 75 -20 75 -17 0 -20 -7 -20 -46 l0
-46 -54 46 c-77 66 -86 63 -86 -30z"/>
<path d="M1327 1543 c-4 -3 -7 -19 -7 -34 0 -35 24 -49 84 -49 28 0 46 -5 46
-11 0 -9 -21 -10 -70 -6 -52 4 -70 3 -70 -7 0 -25 25 -36 85 -36 67 0 85 11
85 50 0 38 -18 50 -77 50 -33 0 -53 4 -53 11 0 8 18 10 59 6 64 -5 73 -3 64
19 -4 10 -24 14 -72 14 -37 0 -71 -3 -74 -7z"/>
<path d="M1512 1538 c3 -7 19 -14 36 -16 l32 -3 0 -60 c0 -52 2 -60 18 -57 13
2 18 15 20 60 3 56 3 57 35 60 64 6 25 23 -59 26 -67 2 -85 0 -82 -10z"/>
<path d="M1722 1478 c2 -60 6 -73 21 -76 15 -3 17 6 17 72 0 70 -2 76 -20 76
-19 0 -21 -5 -18 -72z"/>
<path d="M1800 1535 c0 -10 11 -15 35 -15 l35 0 0 -60 c0 -47 3 -60 15 -60 12
0 15 13 15 59 0 60 0 60 32 63 17 2 33 9 36 16 3 9 -18 12 -82 12 -70 0 -86
-3 -86 -15z"/>
<path d="M2010 1487 c0 -36 5 -68 12 -75 12 -12 104 -17 132 -6 23 9 23 144 1
144 -12 0 -15 -13 -15 -55 l0 -55 -50 0 -50 0 0 55 c0 42 -3 55 -15 55 -12 0
-15 -14 -15 -63z"/>
<path d="M2212 1538 c3 -7 19 -14 36 -16 30 -3 31 -4 34 -60 2 -43 7 -57 18
-57 11 0 16 14 18 57 3 56 3 57 35 60 64 6 25 23 -59 26 -67 2 -85 0 -82 -10z"/>
<path d="M2427 1544 c-12 -12 -8 -119 5 -132 14 -14 136 -16 156 -3 9 5 12 27
10 72 l-3 64 -80 3 c-45 1 -84 0 -88 -4z m143 -64 l0 -40 -55 0 -55 0 0 40 0
40 55 0 55 0 0 -40z"/>
<path d="M2750 1535 c0 -10 11 -15 35 -15 l35 0 0 -60 c0 -47 3 -60 15 -60 12
0 15 13 15 59 0 60 0 60 32 63 17 2 33 9 36 16 3 9 -18 12 -82 12 -70 0 -86
-3 -86 -15z"/>
<path d="M2960 1475 l0 -75 76 0 c66 0 75 2 72 18 -2 13 -15 18 -61 20 -63 3
-76 24 -19 30 46 5 43 32 -4 32 -61 0 -35 25 29 28 84 4 69 22 -18 22 l-75 0
0 -75z"/>
<path d="M3177 1544 c-4 -4 -7 -35 -7 -70 0 -47 4 -63 16 -68 28 -11 120 -6
132 6 19 19 15 48 -8 48 -11 0 -20 -4 -20 -10 0 -5 -18 -10 -40 -10 l-40 0 0
40 0 40 40 0 c22 0 40 -4 40 -10 0 -5 9 -10 21 -10 15 0 20 5 17 23 -3 20 -9
22 -73 25 -39 1 -74 0 -78 -4z"/>
<path d="M3400 1475 c0 -60 3 -75 15 -75 11 0 15 12 15 51 l0 51 61 -51 c33
-28 65 -51 70 -51 5 0 9 34 9 75 0 59 -3 75 -14 75 -11 0 -16 -14 -18 -47 l-3
-46 -54 46 c-30 26 -61 47 -68 47 -10 0 -13 -20 -13 -75z"/>
<path d="M3642 1478 c2 -60 6 -73 21 -76 15 -3 17 6 17 72 0 70 -2 76 -20 76
-19 0 -21 -5 -18 -72z"/>
<path d="M3757 1544 c-4 -4 -7 -35 -7 -70 0 -47 4 -63 16 -68 28 -11 120 -6
132 6 19 19 15 48 -8 48 -11 0 -20 -4 -20 -10 0 -5 -20 -10 -45 -10 l-45 0 0
40 0 40 45 0 c25 0 45 -4 45 -10 0 -5 9 -10 21 -10 15 0 20 5 17 23 -3 20 -9
22 -73 25 -39 1 -74 0 -78 -4z"/>
<path d="M3976 1535 c-10 -26 -7 -94 4 -116 9 -16 22 -19 84 -19 90 0 98 8 94
87 l-3 58 -86 3 c-72 2 -88 0 -93 -13z m144 -55 l0 -40 -55 0 -55 0 0 40 0 40
55 0 55 0 0 -40z"/>
<path d="M1722 1255 c-14 -29 -2 -33 21 -7 20 22 21 32 4 32 -8 0 -19 -11 -25
-25z"/>
<path d="M1482 1138 c2 -57 6 -73 18 -73 9 0 16 11 18 28 4 34 22 34 60 2 17
-14 40 -25 53 -25 24 1 24 1 -4 24 -28 22 -28 23 -8 29 17 4 21 13 21 46 l0
41 -80 0 -81 0 3 -72z m126 30 c3 -15 -4 -18 -42 -18 -40 0 -46 3 -46 21 0 18
5 20 42 17 31 -2 44 -8 46 -20z"/>
<path d="M1710 1140 c0 -63 2 -70 20 -70 18 0 20 7 20 70 0 63 -2 70 -20 70
-18 0 -20 -7 -20 -70z"/>
<path d="M1814 1175 c-3 -19 -3 -51 0 -70 l7 -35 84 0 c96 0 99 3 93 91 l-3
44 -87 3 -87 3 -7 -36z m146 -30 l0 -45 -55 0 -55 0 0 38 c0 21 3 42 7 45 3 4
28 7 55 7 l48 0 0 -45z"/>
<path d="M2140 1201 c0 -6 15 -11 33 -13 32 -3 32 -4 35 -60 3 -50 6 -58 22
-58 18 0 20 7 20 60 l0 60 30 0 c17 0 30 5 30 10 0 6 -35 10 -85 10 -47 0 -85
-4 -85 -9z"/>
<path d="M2350 1140 l0 -70 75 0 c60 0 75 3 75 15 0 12 -13 15 -55 15 -42 0
-55 3 -55 15 0 11 11 15 36 15 45 0 42 24 -4 28 -20 2 -32 9 -32 18 0 10 14
14 55 14 30 0 55 5 55 10 0 6 -32 10 -75 10 l-75 0 0 -70z"/>
<path d="M2570 1140 c0 -56 3 -70 15 -70 9 0 15 9 15 25 0 18 5 25 18 25 10 0
29 -11 42 -25 14 -14 34 -25 49 -25 l26 1 -27 23 c-25 22 -25 24 -7 29 24 6
33 29 25 62 -6 24 -10 25 -81 25 l-75 0 0 -70z m118 28 c3 -15 -4 -18 -42 -18
-40 0 -46 3 -46 21 0 18 5 20 42 17 31 -2 44 -8 46 -20z"/>
<path d="M2794 1197 c-3 -8 -4 -39 -2 -68 l3 -54 75 0 c70 0 75 1 78 23 3 17
-2 22 -17 22 -12 0 -21 -4 -21 -10 0 -5 -18 -10 -40 -10 l-40 0 0 45 0 45 40
0 c29 0 40 -4 40 -15 0 -9 9 -15 21 -15 15 0 20 5 17 23 -3 20 -9 22 -76 25
-55 2 -74 0 -78 -11z"/>
<path d="M3020 1140 l0 -70 75 0 c60 0 75 3 75 15 0 12 -13 15 -55 15 -42 0
-55 3 -55 15 0 10 10 15 30 15 20 0 30 5 30 15 0 10 -10 15 -30 15 -20 0 -30
5 -30 15 0 12 13 15 55 15 30 0 55 5 55 10 0 6 -32 10 -75 10 l-75 0 0 -70z"/>
<path d="M3230 1140 c0 -63 2 -70 20 -70 15 0 20 7 20 25 0 14 5 25 12 25 6 0
26 -11 44 -25 18 -14 43 -25 56 -25 23 1 23 1 -5 24 -28 22 -28 23 -8 29 17 4
21 13 21 46 l0 41 -80 0 -80 0 0 -70z m125 30 c0 -10 -13 -16 -42 -18 -38 -3
-43 -1 -43 18 0 19 5 21 43 18 29 -2 42 -8 42 -18z"/>
<path d="M3456 1195 c-8 -23 -7 -98 2 -111 10 -15 126 -26 157 -14 25 9 26 13
23 72 l-3 63 -86 3 c-72 2 -88 0 -93 -13z m142 -52 l3 -43 -55 0 -56 0 0 38
c0 21 3 42 7 46 4 4 28 6 53 4 l45 -3 3 -42z"/>
</g>
</svg>
