<svg xmlns="http://www.w3.org/2000/svg" viewBox="0 0 500 500"><g id="freepik--Character--inject-2"><path d="M365.37,259.79c14.81.37,29.78.76,44.1,4.56s28.15,11.36,36.64,23.5c9.36,13.36,11.22,30.44,12.15,46.72A521.33,521.33,0,0,1,457,415.65c-1.34,13.64-6.18,26.32-18.87,31.51-15.26,6.25-35.77,0-35.77,0" style="fill:#263238"></path><path d="M405.09,443.91s.19,0,.56,0l1.65,0,6.33-.05a71.69,71.69,0,0,0,10-.52c1-.16,2-.27,3-.53l1.54-.34c.52-.14,1-.31,1.57-.46,1.07-.28,2.11-.73,3.2-1.13a30.58,30.58,0,0,0,3.2-1.58,23.14,23.14,0,0,0,6-4.76,18.06,18.06,0,0,0,3.91-7.2,85.86,85.86,0,0,0,2.25-18.23c.2-6.49.13-13.31.19-20.39s.06-14.39.1-21.89.11-14.83-.13-21.9a148.81,148.81,0,0,0-1.92-20.26c-2.16-12.79-6.63-23.88-12.41-31.82a71,71,0,0,0-8.84-9.82c-2.85-2.67-5.41-4.85-7.51-6.62l-4.86-4.05-1.25-1.07a4.85,4.85,0,0,1-.42-.38s.16.11.45.34l1.29,1,4.92,4c2.12,1.74,4.71,3.9,7.58,6.56a70.17,70.17,0,0,1,8.94,9.82c5.85,8,10.39,19.11,12.59,32a148.21,148.21,0,0,1,1.94,20.33c.26,7.08.18,14.41.15,21.91s-.07,14.82-.11,21.9,0,13.89-.22,20.4a86.42,86.42,0,0,1-2.31,18.33,18.49,18.49,0,0,1-4,7.35,23.61,23.61,0,0,1-6.07,4.81,32.26,32.26,0,0,1-3.24,1.59c-1.11.4-2.17.84-3.25,1.12l-1.58.45-1.56.34c-1,.25-2,.35-3,.51a69.38,69.38,0,0,1-10,.43l-6.33,0-1.65,0Z" style="fill:#455a64"></path><path d="M448.71,370.65a14.77,14.77,0,0,1,5.19-.93,15.07,15.07,0,0,1,5.26.44c0,.15-2.36-.06-5.24.08S448.74,370.8,448.71,370.65Z" style="fill:#455a64"></path><path d="M384.72,260.56h.38l1.13,0c1,0,2.46,0,4.34.17a66.55,66.55,0,0,1,15.6,3.33l2.43.9,1.26.47,1.24.56,2.57,1.17c.88.39,1.71.89,2.6,1.35a71.05,71.05,0,0,1,10.6,6.93,73,73,0,0,1,10.2,9.59,53.69,53.69,0,0,1,8.25,12.55c4.46,9.35,6.39,19.14,7.38,28s1,16.92,1,23.66,0,12.18.13,15.95c.06,1.86.1,3.31.13,4.34,0,.47,0,.84,0,1.12a2.29,2.29,0,0,1,0,.39,1.65,1.65,0,0,1,0-.38c0-.28,0-.66-.08-1.13-.07-1-.14-2.45-.22-4.33-.15-3.77-.23-9.22-.3-16s-.18-14.76-1.15-23.61-3-18.53-7.37-27.8a52.83,52.83,0,0,0-8.17-12.44,71.59,71.59,0,0,0-10.11-9.55,70.39,70.39,0,0,0-10.51-6.93c-.87-.46-1.7-1-2.57-1.36l-2.55-1.17-1.24-.57-1.24-.47-2.41-.92a69.87,69.87,0,0,0-15.5-3.47c-1.87-.16-3.34-.19-4.32-.26l-1.13-.07A1.65,1.65,0,0,1,384.72,260.56Z" style="fill:#e0e0e0"></path><path d="M375.46,260.53s3.63-9.59,16.56-7.77c0,0,5.76-.32,6.81,2.88,0,0-12.05-3-17.18,5.34Z" style="fill:#263238"></path><path d="M412.31,272.21h-7.57s-1.47-20-19.83-19.25C384.91,253,407.73,245.32,412.31,272.21Z" style="fill:#455a64"></path><polygon points="448.82 382.87 459.68 384.37 458.59 388.23 448.46 387.45 448.82 382.87" style="fill:#455a64"></polygon><path d="M449.48,386.36a8.85,8.85,0,0,1,1.27-1.95l.15-.2.17.2,1.52,1.85-.35-.05,1.08-.8,1.13-.82.2-.15.15.21,1.39,2-.28-.05a9.26,9.26,0,0,1,2-1.16,8.42,8.42,0,0,1-1.72,1.49L456,387l-.12-.16-1.48-1.9.35.05-1.11.83-1.09.79-.2.15-.15-.2-1.44-1.9h.32A8.81,8.81,0,0,1,449.48,386.36Z" style="fill:#5FBFF9"></path><path d="M291,454.34s-2.1-6.84-1.68-9.74,4.31-5.52,4.31-5.52l-4.22-109.65s-.54-48,24.84-62.87l15.15-3.82,37.37-2.21c1.21.4,45.13,16.92,51.17,23.37L399,380.6s2.3,28.57,4.59,49.1c.47,4.2,3.62,24.94,3.62,24.94Z" style="fill:#5FBFF9"></path><g style="opacity:0.30000000000000004"><path d="M402.89,423.25c-.36,2.66-1.37,5.91-3.93,6.74a16.73,16.73,0,0,1-8,.11c-9.36-1.67-18-6.07-26.45-10.41-15.81-8.13-31.77-16.34-45.43-27.74-1.92-1.6-4-4.09-2.79-6.3,1.33-2.5,5.08-1.66,7.65-.47,26.82,12.36,52.12,25.7,78.94,38.07"></path></g><path d="M308.56,269.55s-16.73,5.58-22.14,21.08c-6,17.12-9.94,50.36-9.94,50.36L293,343.07Z" style="fill:#5FBFF9"></path><path d="M417.92,283.9s9,11.8,13.34,26.14,6.86,55.89,6.86,55.89l-45-.62-2.39-36.57S386.19,267.73,417.92,283.9Z" style="fill:#5FBFF9"></path><path d="M282.38,305.56a5.33,5.33,0,0,1,1.25-1.17,6.11,6.11,0,0,1,4.73-.91c2.18.32,4.3,2,7.09,3.1a8,8,0,0,0,4.64.57c1.64-.35,3.07-1.53,4.57-2.68a12.6,12.6,0,0,1,2.5-1.57,4,4,0,0,1,3.11-.13,5.23,5.23,0,0,1,2.42,2.16c.62.9,1.12,1.88,1.77,2.76a4.85,4.85,0,0,0,2.54,2,5.93,5.93,0,0,0,3.34,0,12.83,12.83,0,0,0,3.26-1.41c1-.61,2-1.35,3.11-2a14.77,14.77,0,0,1,3.48-1.69,6.62,6.62,0,0,1,4,0,10.46,10.46,0,0,1,3.46,2.12c1,.87,2,1.83,3.05,2.66a7.73,7.73,0,0,0,3.56,1.74,7.31,7.31,0,0,0,4-.41c2.6-1,4.9-2.74,7.46-4.15a13.83,13.83,0,0,1,4.07-1.63,8.11,8.11,0,0,1,4.34.34c2.72,1.06,4.74,3.13,7.16,4.28a8.6,8.6,0,0,0,1.86.66,7.46,7.46,0,0,0,1.94.13,10.87,10.87,0,0,0,3.73-1.07c2.37-1.07,4.51-2.57,7-3.38a7.6,7.6,0,0,1,3.78-.33,7.08,7.08,0,0,1,3.29,1.68c1.83,1.53,3.28,3.48,5.37,4.13a6.23,6.23,0,0,0,3.15.09,23.24,23.24,0,0,0,3-.9c1.93-.68,3.95-1.38,5.91-.93a6.18,6.18,0,0,1,2.54,1.25c.73.56,1.37,1.18,2,1.74a10.79,10.79,0,0,0,2,1.45,6.41,6.41,0,0,0,2.16.69,9,9,0,0,0,4.09-.41,12.26,12.26,0,0,0,3.11-1.59,27.23,27.23,0,0,0,3.68-3.19l.9-.9a1.7,1.7,0,0,1,.32-.29s-.09.12-.28.33l-.86.94a26.21,26.21,0,0,1-3.65,3.28,12.36,12.36,0,0,1-3.14,1.65,9.2,9.2,0,0,1-4.21.47,6.65,6.65,0,0,1-2.27-.71,11.51,11.51,0,0,1-2-1.47c-1.29-1.1-2.57-2.51-4.41-2.88s-3.76.26-5.69.95a24.21,24.21,0,0,1-3.06.93,6.72,6.72,0,0,1-3.36-.09,8.22,8.22,0,0,1-3-1.81c-.88-.78-1.68-1.63-2.59-2.38a6.48,6.48,0,0,0-3.08-1.57,7.16,7.16,0,0,0-3.54.33c-2.35.78-4.49,2.27-6.91,3.37a11.13,11.13,0,0,1-3.89,1.12,8.06,8.06,0,0,1-2.08-.13,9.33,9.33,0,0,1-2-.7c-2.52-1.21-4.54-3.26-7.13-4.25a7.53,7.53,0,0,0-4.05-.32,13.76,13.76,0,0,0-3.92,1.57c-2.52,1.38-4.82,3.17-7.53,4.19a8,8,0,0,1-4.26.43,8.29,8.29,0,0,1-3.78-1.85c-2.17-1.69-3.91-3.89-6.36-4.7a6.11,6.11,0,0,0-3.69,0,14.3,14.3,0,0,0-3.36,1.63c-1.07.65-2.06,1.39-3.14,2a13.33,13.33,0,0,1-3.37,1.44,6.48,6.48,0,0,1-3.6,0,5.39,5.39,0,0,1-2.75-2.13c-.67-.92-1.17-1.91-1.76-2.79a5,5,0,0,0-2.22-2,3.59,3.59,0,0,0-2.82.12,11.74,11.74,0,0,0-2.43,1.51c-1.5,1.12-3,2.33-4.72,2.71a8.31,8.31,0,0,1-4.82-.63c-2.83-1.12-4.91-2.83-7-3.17a6.09,6.09,0,0,0-4.64.8A11.7,11.7,0,0,0,282.38,305.56Z" style="fill:#fafafa"></path><path d="M277.08,332.6a2.43,2.43,0,0,1,.44,0l1.3.13a11.19,11.19,0,0,0,4.92-.13c1.06-.23,2.25-.44,3.55-.67s2.69-.54,4.23-.72a11.74,11.74,0,0,1,5,.36c1.7.5,3.35,1.37,5.17,2a10,10,0,0,0,5.88.17c2-.49,4-1.42,6.21-2.17a11.69,11.69,0,0,1,7-.69c2.42.68,4.37,2.47,6.79,3.06a5.45,5.45,0,0,0,1.84.13,8.59,8.59,0,0,0,1.85-.44c1.22-.42,2.4-1,3.69-1.49a5.89,5.89,0,0,1,4.14-.14,14.8,14.8,0,0,1,3.5,2.32,8.39,8.39,0,0,0,1.74,1.05,4.72,4.72,0,0,0,2,.37,10.62,10.62,0,0,0,4-1.19,22.85,22.85,0,0,1,4.08-1.63,6.65,6.65,0,0,1,2.27-.16,6.35,6.35,0,0,1,2.18.71,38,38,0,0,1,3.66,2.51,8.9,8.9,0,0,0,1.86,1,4.78,4.78,0,0,0,1,.28l.51.09.52,0a11.37,11.37,0,0,0,4.08-.85c1.32-.48,2.62-1.05,4-1.45a7.93,7.93,0,0,1,4.21-.31,7.78,7.78,0,0,1,3.55,2.14,27.42,27.42,0,0,0,2.92,2.64,5.47,5.47,0,0,0,3.52,1,9.59,9.59,0,0,0,3.52-1.07c1.11-.54,2.16-1.17,3.23-1.76,2.1-1.17,4.41-2.24,6.8-2a13.09,13.09,0,0,1,6,2.81,34.43,34.43,0,0,0,5,3.37,14.66,14.66,0,0,0,5.24,1.42,18.64,18.64,0,0,0,4.86-.37,17.38,17.38,0,0,0,7-3.41,16,16,0,0,0,3.26-3.72c.28-.49.47-.89.61-1.14a3.52,3.52,0,0,1,.22-.39,2.44,2.44,0,0,1-.17.41c-.13.26-.3.67-.57,1.17a15.08,15.08,0,0,1-3.22,3.82,17.44,17.44,0,0,1-7.05,3.54,18.29,18.29,0,0,1-4.94.42,14.8,14.8,0,0,1-5.38-1.42,33.69,33.69,0,0,1-5.09-3.37,12.77,12.77,0,0,0-5.81-2.71c-2.24-.25-4.45.77-6.54,1.94-1.05.59-2.11,1.23-3.25,1.78a10.05,10.05,0,0,1-3.69,1.13,6,6,0,0,1-3.82-1.08,26.33,26.33,0,0,1-3-2.68,7.27,7.27,0,0,0-3.33-2,7.45,7.45,0,0,0-3.95.31c-1.32.39-2.61,1-3.95,1.44a11.71,11.71,0,0,1-4.26.89l-.57,0-.55-.1a4.53,4.53,0,0,1-1.09-.31,9.54,9.54,0,0,1-2-1.07,39.94,39.94,0,0,0-3.61-2.48,5.73,5.73,0,0,0-2-.65,6.42,6.42,0,0,0-2.09.14,23.81,23.81,0,0,0-4,1.6,11.25,11.25,0,0,1-4.18,1.24,5.56,5.56,0,0,1-2.18-.41,9,9,0,0,1-1.84-1.12,15.41,15.41,0,0,0-3.37-2.26,5.44,5.44,0,0,0-3.81.14c-1.24.43-2.43,1.05-3.69,1.48a8.74,8.74,0,0,1-2,.46,6.11,6.11,0,0,1-2-.14c-2.59-.66-4.52-2.45-6.81-3.09a11.29,11.29,0,0,0-6.78.65,65.5,65.5,0,0,1-6.26,2.16,10.32,10.32,0,0,1-6.09-.22c-1.86-.63-3.49-1.51-5.15-2a11.41,11.41,0,0,0-4.81-.38c-1.52.16-2.93.46-4.23.68s-2.49.4-3.55.62c-.53.1-1,.22-1.52.29a5.64,5.64,0,0,1-1.36,0c-.83-.09-1.53-.19-2.1-.27l-1.28-.18A2.28,2.28,0,0,1,277.08,332.6Z" style="fill:#fafafa"></path><path d="M293.73,356.18h.3l.87.09c.76.08,1.88.23,3.32.45,2.89.39,7,1.25,12.21,1.68a42.6,42.6,0,0,0,8.47-.15,20.13,20.13,0,0,1,4.79,0,8.55,8.55,0,0,1,2.43.71,12.18,12.18,0,0,1,2.18,1.42c1.36,1,2.65,2.33,4.32,2.83a4.52,4.52,0,0,0,2.55,0,17.63,17.63,0,0,0,2.54-1,9.9,9.9,0,0,1,2.75-.92,4.3,4.3,0,0,1,2.92.63c1.73,1.05,2.86,2.8,4.62,3.54s3.77.29,5.58-.24a21.78,21.78,0,0,1,5.62-1.31,6.31,6.31,0,0,1,2.81.59,10.08,10.08,0,0,1,2.31,1.56,19.8,19.8,0,0,0,4.12,3.18,6.27,6.27,0,0,0,4.74,0c1.54-.48,2.95-1.23,4.49-1.58a6.58,6.58,0,0,1,4.47.34,3.61,3.61,0,0,1,1.53,1.54,13.84,13.84,0,0,1,.7,1.9,4.25,4.25,0,0,0,.86,1.6,3.51,3.51,0,0,0,1.43.93,5.27,5.27,0,0,0,3.17,0,5.68,5.68,0,0,0,2.37-1.46,9.89,9.89,0,0,0,1.45-1.9,21.52,21.52,0,0,0,1.4-3c.14-.33.24-.6.32-.81a1.16,1.16,0,0,1,.13-.27,1.33,1.33,0,0,1-.08.29l-.27.83a18.7,18.7,0,0,1-1.33,3.09,9.37,9.37,0,0,1-1.44,2,6,6,0,0,1-2.46,1.57,5.56,5.56,0,0,1-3.36.05,3.79,3.79,0,0,1-1.59-1,4.61,4.61,0,0,1-1-1.72,14.49,14.49,0,0,0-.69-1.84,3.29,3.29,0,0,0-1.37-1.37,6.16,6.16,0,0,0-4.19-.26c-1.46.33-2.88,1.08-4.45,1.59a9.25,9.25,0,0,1-2.49.49,5.84,5.84,0,0,1-2.59-.5,20.2,20.2,0,0,1-4.24-3.24,10.52,10.52,0,0,0-2.2-1.49,6,6,0,0,0-2.59-.53,21.66,21.66,0,0,0-5.48,1.29,15.27,15.27,0,0,1-2.9.64,6,6,0,0,1-3-.41c-1.95-.85-3.09-2.63-4.69-3.58a3.77,3.77,0,0,0-2.59-.56,9.37,9.37,0,0,0-2.6.87,17.64,17.64,0,0,1-2.61,1.07,5,5,0,0,1-2.83,0c-1.84-.57-3.14-1.9-4.48-2.93a11.31,11.31,0,0,0-2.08-1.37,8.14,8.14,0,0,0-2.3-.69,19.79,19.79,0,0,0-4.68,0,43.05,43.05,0,0,1-8.54.09c-5.21-.48-9.33-1.4-12.21-1.85l-3.31-.55-.86-.13Z" style="fill:#fafafa"></path><path d="M292.33,422.87l.3-.12.87-.3c.77-.27,1.91-.68,3.38-1.16A25.89,25.89,0,0,1,302.4,420a8.18,8.18,0,0,1,3.52.58,16.1,16.1,0,0,0,3.75,1.07,8.11,8.11,0,0,0,4.1-.92,23.33,23.33,0,0,1,4.41-1.77,10.82,10.82,0,0,1,5.1.3c1.69.45,3.36,1.12,5.1,1.63a11.1,11.1,0,0,0,5.43.46,34.28,34.28,0,0,0,5.43-2.11,9.09,9.09,0,0,1,3-.71,5.44,5.44,0,0,1,3.06.81c1.83,1.08,3.14,2.86,5.06,3.57a5,5,0,0,0,2.95.07,18.07,18.07,0,0,0,2.86-1.09,21,21,0,0,1,2.88-1.14,5.43,5.43,0,0,1,3.12-.07,6.14,6.14,0,0,1,2.54,1.69c.7.71,1.32,1.45,2,2.05a5.56,5.56,0,0,0,5.08,1.07c1.77-.35,3.44-1,5.13-1.49a10.41,10.41,0,0,1,2.59-.39,4.79,4.79,0,0,1,2.49.61,5,5,0,0,1,1.81,1.68c.46.66.82,1.35,1.19,2a5.56,5.56,0,0,0,2.91,2.9,4.92,4.92,0,0,0,3.7-.38,8.63,8.63,0,0,0,2.73-2.08,25.71,25.71,0,0,0,2.89-4.8,20,20,0,0,1,1.88-3.05,6.88,6.88,0,0,1,.85-.91s-.28.32-.76,1a21.5,21.5,0,0,0-1.79,3.07,25.21,25.21,0,0,1-2.85,4.9,8.77,8.77,0,0,1-2.81,2.19,5.26,5.26,0,0,1-4,.43,6,6,0,0,1-3.14-3.05c-.75-1.29-1.45-2.79-2.86-3.51s-3.12-.58-4.75-.15-3.32,1.14-5.15,1.51a7.37,7.37,0,0,1-2.85.1,6,6,0,0,1-1.42-.43,6.1,6.1,0,0,1-1.24-.83c-.75-.64-1.38-1.39-2.06-2.07a5.52,5.52,0,0,0-2.34-1.56,5,5,0,0,0-2.83.07,21.35,21.35,0,0,0-2.81,1.12,16.8,16.8,0,0,1-2.95,1.12,5.55,5.55,0,0,1-3.25-.08c-2.12-.81-3.42-2.62-5.14-3.62a4.92,4.92,0,0,0-2.78-.73,8.54,8.54,0,0,0-2.84.67,34.06,34.06,0,0,1-5.51,2.12,11.57,11.57,0,0,1-5.66-.49c-1.78-.53-3.43-1.2-5.09-1.65a10.5,10.5,0,0,0-4.89-.32,23.49,23.49,0,0,0-4.34,1.72,8.56,8.56,0,0,1-4.3.92,16.27,16.27,0,0,1-3.82-1.12,7.88,7.88,0,0,0-3.39-.61,26.72,26.72,0,0,0-5.48,1.19l-3.4,1.07-.9.25A1,1,0,0,1,292.33,422.87Z" style="fill:#fafafa"></path><path d="M348.51,398.1a3.25,3.25,0,0,1-.57.37,13.14,13.14,0,0,1-1.76.8,14.46,14.46,0,0,1-7.05.73,14.88,14.88,0,0,1-2.32-.54c-.79-.25-1.58-.61-2.38-.95a5.57,5.57,0,0,0-2.54-.52,5.38,5.38,0,0,0-2.52,1.08c-.79.56-1.56,1.23-2.47,1.79a6,6,0,0,1-1.5.66,3.87,3.87,0,0,1-.83.12,3,3,0,0,1-.85,0c-2.28-.29-4.1-1.8-6.09-2.8a5.4,5.4,0,0,0-3.09-.79l-.38.05a2.53,2.53,0,0,0-.36.12,2.61,2.61,0,0,0-.7.32,6.25,6.25,0,0,0-1.17,1,20.15,20.15,0,0,1-2.2,2.34,3.23,3.23,0,0,1-1.49.68,2.73,2.73,0,0,1-1.6-.23,6,6,0,0,1-2.12-2.1,20.11,20.11,0,0,0-1.59-2.18,5.57,5.57,0,0,0-4.25-1.69,6.28,6.28,0,0,0-3.59,1.45A8.64,8.64,0,0,0,293,400a4.53,4.53,0,0,0-.81,2.39,1.93,1.93,0,0,1,0-.67,4.43,4.43,0,0,1,.66-1.83,8.56,8.56,0,0,1,2.08-2.27,6.65,6.65,0,0,1,3.75-1.59,5.92,5.92,0,0,1,4.59,1.77A21.52,21.52,0,0,1,304.9,400a5.57,5.57,0,0,0,1.94,1.92,2.4,2.4,0,0,0,2.59-.41,22.49,22.49,0,0,0,2.13-2.28,6.53,6.53,0,0,1,1.27-1.12,3.65,3.65,0,0,1,.8-.37l.42-.14.44-.06a6,6,0,0,1,3.38.84c2,1,3.84,2.51,5.91,2.77a4.3,4.3,0,0,0,2.86-.69c.86-.52,1.64-1.18,2.46-1.75a4.92,4.92,0,0,1,5.5-.57c.81.36,1.57.71,2.33,1a15.4,15.4,0,0,0,2.25.56,14.86,14.86,0,0,0,6.93-.56C347.69,398.56,348.48,398.05,348.51,398.1Z" style="fill:#fafafa"></path><path d="M293.31,449.59a1.19,1.19,0,0,1,.3.08l.37.12.52.08a6.26,6.26,0,0,0,3.35-.82A25.33,25.33,0,0,1,303,446.8a5.83,5.83,0,0,1,1.73-.09,5.63,5.63,0,0,1,1.75.58,26.17,26.17,0,0,1,3.22,2.26,5.75,5.75,0,0,0,3.84,1.36,13.76,13.76,0,0,0,4.29-1.55,10.24,10.24,0,0,1,2.38-.79,7.11,7.11,0,0,1,2.6.06c1.74.32,3.37,1.06,5.09,1.53a10.68,10.68,0,0,0,5.39.08,38.46,38.46,0,0,0,5.47-1.81,25.23,25.23,0,0,1,5.82-1.68,11,11,0,0,1,6.17,1c1.94.84,3.71,1.92,5.58,2.67a8.64,8.64,0,0,0,5.71.53c3.73-1.07,6.46-4.09,10-5.26a8.18,8.18,0,0,1,5.35,0,18.68,18.68,0,0,1,4.47,2.31c1.35.89,2.62,1.79,3.91,2.52a14.33,14.33,0,0,0,3.93,1.58,14.8,14.8,0,0,0,7.23-.31,15,15,0,0,0,4.9-2.51,15.24,15.24,0,0,0,3.2-3.47,1.56,1.56,0,0,1-.15.28l-.49.78a13.28,13.28,0,0,1-2.44,2.57A15.19,15.19,0,0,1,397,452a13.89,13.89,0,0,1-11.44-1.2c-1.32-.73-2.59-1.63-3.94-2.5a18.1,18.1,0,0,0-4.38-2.24,7.67,7.67,0,0,0-5.05,0,21.68,21.68,0,0,0-4.82,2.63,19.22,19.22,0,0,1-5.22,2.68,9.26,9.26,0,0,1-6-.54c-1.92-.78-3.69-1.86-5.59-2.69a10.53,10.53,0,0,0-5.9-.93,24.81,24.81,0,0,0-5.7,1.63,37.93,37.93,0,0,1-5.55,1.83,11.24,11.24,0,0,1-5.62-.11c-1.77-.49-3.38-1.23-5-1.54a6.48,6.48,0,0,0-2.44-.07,9.5,9.5,0,0,0-2.28.74,14.1,14.1,0,0,1-4.44,1.56,6.09,6.09,0,0,1-4.09-1.46,26.66,26.66,0,0,0-3.15-2.26,5.43,5.43,0,0,0-1.64-.57,5.21,5.21,0,0,0-1.63.06,26.21,26.21,0,0,0-5.1,2.16,6.2,6.2,0,0,1-3.44.73c-.21,0-.38-.06-.53-.1l-.36-.15A1.42,1.42,0,0,1,293.31,449.59Z" style="fill:#fafafa"></path><path d="M295.78,277.65s.3.36,1,.9a8.17,8.17,0,0,0,3.44,1.5,20.08,20.08,0,0,0,6,.12c1.17-.09,2.43-.21,3.78-.19a11.73,11.73,0,0,1,4.2.75,39.18,39.18,0,0,1,4.14,2.17,14.4,14.4,0,0,0,2.23,1,9.59,9.59,0,0,0,2.47.4,24.71,24.71,0,0,0,5.31-.6,19.61,19.61,0,0,1,5.77-.44,14.09,14.09,0,0,1,5.61,2.33,15.34,15.34,0,0,0,5.6,2.49,8.86,8.86,0,0,0,3.11-.21,19.44,19.44,0,0,0,3-1.14,38.26,38.26,0,0,1,6.2-2.64,8.91,8.91,0,0,1,3.45-.2,9.9,9.9,0,0,1,3.19,1.19c1.95,1.1,3.61,2.52,5.52,3.4a10.24,10.24,0,0,0,6,.74,36.69,36.69,0,0,0,5.79-1.5,32.45,32.45,0,0,1,5.61-1.35,15.38,15.38,0,0,1,5.44.34,68.34,68.34,0,0,1,9.12,3.37,15.34,15.34,0,0,0,7.74,1.23,18.37,18.37,0,0,0,5.8-1.46,11.26,11.26,0,0,0,4.1-3,6.32,6.32,0,0,1-.86,1,10.74,10.74,0,0,1-3.16,2.16,18.67,18.67,0,0,1-5.85,1.56,17.33,17.33,0,0,1-3.8,0,15.56,15.56,0,0,1-4.1-1.14,68,68,0,0,0-9.09-3.29,14.81,14.81,0,0,0-5.29-.31,33.91,33.91,0,0,0-5.52,1.36,38.27,38.27,0,0,1-5.85,1.54,10.88,10.88,0,0,1-6.29-.77c-2-.92-3.66-2.36-5.56-3.42a9.39,9.39,0,0,0-3-1.13,8.26,8.26,0,0,0-3.24.2,37.3,37.3,0,0,0-6.11,2.61,20.14,20.14,0,0,1-3.12,1.16,9.18,9.18,0,0,1-3.3.21,15.59,15.59,0,0,1-5.79-2.57,13.66,13.66,0,0,0-5.41-2.27c-3.85-.42-7.47,1.17-11,1a9.7,9.7,0,0,1-2.58-.45,14,14,0,0,1-2.29-1,39.92,39.92,0,0,0-4.08-2.18c-2.74-1.09-5.51-.75-7.83-.61a19.84,19.84,0,0,1-6.05-.21,8,8,0,0,1-3.46-1.62A4.71,4.71,0,0,1,295.78,277.65Z" style="fill:#fafafa"></path><g style="opacity:0.30000000000000004"><path d="M370.79,289.15l14.12,9.77c-4.49,11.13-.34,26.58,3.56,39.22,1.51,4.92,6.52,10,6.27,15.18s4.07,13.88-.91,15.18c-3.3.87-6.89-.26-9.64-2.28a26.93,26.93,0,0,1-6.56-7.78C367.71,342.4,363.08,311.72,370.79,289.15Z"></path></g><path d="M296.46,441.08a1.82,1.82,0,0,1,.54.06l1.52.28,5.58,1.06c4.71.89,11.24,2,18.48,3s13.83,1.7,18.6,2.14l5.66.5,1.54.15a1.9,1.9,0,0,1,.53.09,2.27,2.27,0,0,1-.54,0l-1.54-.05c-1.35-.06-3.28-.17-5.68-.34-4.78-.35-11.39-1-18.64-2s-13.78-2.21-18.48-3.19c-2.35-.48-4.25-.91-5.55-1.22l-1.5-.38A2.32,2.32,0,0,1,296.46,441.08Z" style="fill:#263238"></path><path d="M318.44,438.47a8.15,8.15,0,0,1,.83.18c.54.12,1.32.38,2.36.57a48.41,48.41,0,0,0,8.83,1.14,49.64,49.64,0,0,0,13.11-1.21,47.4,47.4,0,0,0,26.89-16.79,50.31,50.31,0,0,0,9.71-19.68c.27-1,.38-1.83.52-2.37a4.2,4.2,0,0,1,.2-.82,5.27,5.27,0,0,1-.1.84c-.1.55-.18,1.37-.43,2.4a46,46,0,0,1-2.71,8.53,49.35,49.35,0,0,1-6.81,11.4,48.43,48.43,0,0,1-40.4,18.07,45.36,45.36,0,0,1-8.86-1.31c-1-.23-1.81-.52-2.34-.67A3.94,3.94,0,0,1,318.44,438.47Z" style="fill:#263238"></path><path d="M327.3,262.69a3.2,3.2,0,0,1,0,.73c0,.52,0,1.2,0,2.06a29.79,29.79,0,0,0,.76,7.49,13.59,13.59,0,0,0,2.16,4.66,13.36,13.36,0,0,0,4.47,3.79,22.44,22.44,0,0,0,6.18,2.21,28.9,28.9,0,0,0,7,.68,25.82,25.82,0,0,0,13-3.67,20.52,20.52,0,0,0,7.46-8.09,18.22,18.22,0,0,0,1.94-7.22c.07-1.78-.12-2.76-.05-2.77a5.15,5.15,0,0,1,.13.71,14.48,14.48,0,0,1,.13,2.07,17.67,17.67,0,0,1-1.82,7.37,20.64,20.64,0,0,1-7.54,8.34,26,26,0,0,1-13.23,3.78,29.39,29.39,0,0,1-7.14-.7,22.82,22.82,0,0,1-6.3-2.29,13.59,13.59,0,0,1-4.59-4,13.82,13.82,0,0,1-2.17-4.82,28.46,28.46,0,0,1-.61-7.58c0-.9.08-1.6.12-2.07A3.2,3.2,0,0,1,327.3,262.69Z" style="fill:#263238"></path><path d="M321.19,264.43s-24.33.93-30.11,25.22c-6.69,28.15-2.65,59.17,5.76,74.71l.39-27.68a127.17,127.17,0,0,1,13.53-55.27Z" style="fill:#455a64"></path><path d="M292.59,344.3a4.67,4.67,0,0,1-.06-.85c0-.6,0-1.41-.08-2.43s-.06-2.35,0-3.85,0-3.22.17-5.1q.09-1.43.18-3c.07-1,.2-2.09.3-3.2.19-2.22.55-4.57.89-7a149.74,149.74,0,0,1,3.46-15.9,147.18,147.18,0,0,1,5.36-15.36c1-2.3,1.92-4.49,2.93-6.48.49-1,.93-2,1.41-2.89s.95-1.79,1.4-2.62c.86-1.68,1.77-3.14,2.52-4.44s1.44-2.39,2-3.28l1.34-2a4.53,4.53,0,0,1,.5-.69,6.44,6.44,0,0,1-.41.75L313.26,268c-.56.9-1.23,2-1.95,3.32s-1.61,2.77-2.45,4.46l-1.36,2.63c-.47.92-.9,1.9-1.38,2.9-1,2-1.89,4.18-2.87,6.47a139.62,139.62,0,0,0-8.79,31.16c-.36,2.46-.74,4.8-.94,7-.11,1.11-.25,2.17-.33,3.2s-.15,2-.21,2.95c-.17,1.88-.19,3.59-.25,5.08s-.08,2.79-.08,3.85,0,1.83,0,2.43A5,5,0,0,1,292.59,344.3Z" style="fill:#263238"></path><path d="M303.72,270.59a3,3,0,0,1-.29.65c-.24.46-.54,1.07-.93,1.82-.83,1.56-1.95,3.87-3.26,6.75-.63,1.46-1.36,3-2,4.77-.33.87-.71,1.76-1,2.69s-.66,1.9-1,2.89a113.08,113.08,0,0,0-3.52,13.13,125.78,125.78,0,0,0-2.25,24.59c0,3.17.08,5.73.17,7.5,0,.85.06,1.53.07,2.05a2.78,2.78,0,0,1,0,.71,4.42,4.42,0,0,1-.09-.71c0-.51-.1-1.19-.17-2-.15-1.77-.27-4.34-.34-7.51a118.12,118.12,0,0,1,2.11-24.7A107.68,107.68,0,0,1,294.73,290c.35-1,.69-1.95,1-2.89s.73-1.82,1.07-2.69c.67-1.74,1.43-3.31,2.08-4.76,1.35-2.87,2.53-5.16,3.42-6.7l1-1.77A3.82,3.82,0,0,1,303.72,270.59Z" style="fill:#263238"></path><path d="M399.8,273.8s-16.35,44.48-4.3,82l.66,13.27s-9.22-.63-16.19-13.79-9.23-26.76-11.59-46.35,8.37-44.53,8.37-44.53S395.79,268.6,399.8,273.8Z" style="fill:#455a64"></path><path d="M396.59,368a1.06,1.06,0,0,1-.24-.12l-.68-.38a13.71,13.71,0,0,1-2.34-1.86,21.93,21.93,0,0,1-5.18-9.61,55.73,55.73,0,0,1-1.6-7.41c-.47-2.69-.85-5.57-1.19-8.62a153.47,153.47,0,0,1-.86-19.9,151.12,151.12,0,0,1,1.73-19.85,120.47,120.47,0,0,1,3.4-15.91,47.81,47.81,0,0,1,4.19-10.14,29.06,29.06,0,0,1,1.59-2.53l.45-.62.17-.21s0,.09-.12.24l-.42.65c-.36.58-.88,1.43-1.5,2.57a51.22,51.22,0,0,0-4,10.14,126.9,126.9,0,0,0-3.28,15.88A157.85,157.85,0,0,0,385,320.13a160.36,160.36,0,0,0,.81,19.84c.33,3,.7,5.92,1.14,8.6A60.87,60.87,0,0,0,388.5,356a22.27,22.27,0,0,0,5,9.57A18.37,18.37,0,0,0,396.59,368Z" style="fill:#263238"></path><path d="M396,367.56a.84.84,0,0,1-.27-.09l-.78-.32a17.58,17.58,0,0,1-2.74-1.67,29.39,29.39,0,0,1-7.45-9.11,96.08,96.08,0,0,1-7.15-16,100.49,100.49,0,0,1-4.73-20.88,103.66,103.66,0,0,1-.26-21.42,99,99,0,0,1,3.16-17.21c.71-2.39,1.31-4.57,2-6.41s1.23-3.47,1.83-4.73,1-2.23,1.3-2.93c.15-.31.26-.56.35-.76a1.57,1.57,0,0,1,.14-.25.93.93,0,0,1-.09.27l-.3.78c-.29.71-.7,1.7-1.21,3s-1.09,2.9-1.75,4.76-1.27,4-1.95,6.41a100.38,100.38,0,0,0-3,17.15,104.23,104.23,0,0,0,.3,21.32A102.75,102.75,0,0,0,378,340.25a99.84,99.84,0,0,0,7,15.94,30.21,30.21,0,0,0,7.25,9.13,19.73,19.73,0,0,0,2.67,1.74l.75.36Z" style="fill:#263238"></path><polygon points="388.23 290.64 398.83 293.43 397.29 297.14 387.32 295.15 388.23 290.64" style="fill:#263238"></polygon><path d="M388.47,294.19a8.58,8.58,0,0,1,1.49-1.78l.18-.19.14.22c.41.64.84,1.31,1.28,2l-.34-.09,1.18-.67c.41-.23.81-.46,1.21-.67l.22-.13.12.22,1.15,2.11-.27-.07a8.88,8.88,0,0,1,2.08-.92,8.58,8.58,0,0,1-1.89,1.27l-.17.1-.1-.18c-.4-.65-.81-1.34-1.24-2.06l.35.1-1.21.68-1.18.66-.22.12-.12-.21-1.2-2.06.32,0A9.73,9.73,0,0,1,388.47,294.19Z" style="fill:#5FBFF9"></path><polygon points="301.39 354.19 289.86 332.9 254.75 332.9 253.64 335.01 283.36 384.42 317 386.04 301.39 354.19" style="fill:#455a64"></polygon><path d="M435.24,365.93v37.21a22.64,22.64,0,0,1-8.32,17.52h0a22.62,22.62,0,0,1-22.83,3.42l-81.92-36.31,8-27.32,65.9,21.72L396,365.23Z" style="fill:#ffbe9d"></path><polygon points="300.28 356.3 288.74 335.01 253.64 335.01 282.24 386.53 315.88 388.15 300.28 356.3" style="fill:#263238"></polygon><path d="M333.42,363.38l-5.55-6.89a19.26,19.26,0,0,0-15-7.18H308L304.71,353s-23.74,1-24.61,4l0,.94,0,.56,20.31,1.36s-17.27-.05-18.31,0-4.82-.29-4.74,1.73c.06,1.67,2,3,5,3.42,1.22.18,16.19,1.48,16.19,1.48l-16.47-.16c-1.85,0-1.62,3-.52,3.33.87.29,22,6.45,22,6.45s-3.55,2.37-6.44,2.17-7.86-3.93-8.89-2.17-.83,2.79-.21,3.2,7.44,3.93,9.72,4.55,20.85,3.56,20.85,3.56l6.7,1.08Z" style="fill:#ffbe9d"></path><path d="M258.55,343.32s-3.67,1.28-1.81,6a40.37,40.37,0,0,0,7.45,11.8,4.31,4.31,0,0,0,1.47,4.22s-2.6.65-1,5a4.94,4.94,0,0,0,3.09,6.5s-1.3,3.74,3.41,5.52,9.26-1.3,9.26-1.3Z" style="fill:#ffbe9d"></path><path d="M266,360.75c3.34.9,7,1.62,10.09,2.79,1,.38,2,.4,2.7,1.25a2.33,2.33,0,0,1,.06,3,3.25,3.25,0,0,1-2.72.55,48,48,0,0,1-10.34-2.87" style="fill:#ffbe9d"></path><path d="M267.33,366.32c3.33.9,7,1.61,10.08,2.79,1,.38,2,.4,2.7,1.25a2.33,2.33,0,0,1,.06,3,3.29,3.29,0,0,1-2.72.55A48.57,48.57,0,0,1,267.11,371" style="fill:#ffbe9d"></path><path d="M269.22,372.05c3.34.9,7,1.61,10.09,2.78,1,.39,2,.41,2.69,1.26a2.32,2.32,0,0,1,.06,3,3.22,3.22,0,0,1-2.71.54A48,48,0,0,1,269,376.75" style="fill:#ffbe9d"></path><path d="M266,365.57c0-.14,2.41.68,5.37,1.5s5.39,1.35,5.37,1.49a19.75,19.75,0,0,1-5.51-1A20.59,20.59,0,0,1,266,365.57Z" style="fill:#eb996e"></path><path d="M265.36,370.48a61.43,61.43,0,0,1,6.1,1.74c3.36,1,6.11,1.69,6.08,1.83a43.67,43.67,0,0,1-12.18-3.57Z" style="fill:#eb996e"></path><path d="M267.55,376.8a33,33,0,0,1,5.73,1.16,34.11,34.11,0,0,1,5.61,1.67,32.85,32.85,0,0,1-5.73-1.16A32.28,32.28,0,0,1,267.55,376.8Z" style="fill:#eb996e"></path><path d="M263.22,360.07c0-.15,3,.85,6.73,1.81s6.78,1.52,6.76,1.68a8.19,8.19,0,0,1-2-.17,48.32,48.32,0,0,1-4.84-1,46,46,0,0,1-4.73-1.47A7.68,7.68,0,0,1,263.22,360.07Z" style="fill:#eb996e"></path><path d="M296.63,353.32A67.35,67.35,0,0,1,305,353a67.19,67.19,0,0,1,8.33.21,66.08,66.08,0,0,1-8.33.31A65.93,65.93,0,0,1,296.63,353.32Z" style="fill:#eb996e"></path><path d="M271.46,344a1.76,1.76,0,1,0-.27-2.48A1.76,1.76,0,0,0,271.46,344Z" style="fill:#ebebeb"></path><path d="M391.8,381.21a2.08,2.08,0,0,1,.81.09,15.85,15.85,0,0,1,2.15.54,24.67,24.67,0,0,1,11.87,8.24,16.8,16.8,0,0,1,1.26,1.82c.27.45.4.7.37.72s-.71-.91-1.92-2.31a28.24,28.24,0,0,0-11.7-8.12C392.9,381.55,391.78,381.29,391.8,381.21Z" style="fill:#eb996e"></path><path d="M347.11,282.64h0a20.05,20.05,0,0,1-18.43-21c.37-7.6.77-14.45.77-14.45s-16.3-2.54-16.5-18.82,2.63-53.7,2.63-53.7h0a56.61,56.61,0,0,1,56.88,7.16l2.41,1.85-6.17,80.49A20.06,20.06,0,0,1,347.11,282.64Z" style="fill:#ffbe9d"></path><path d="M329.42,247a37.86,37.86,0,0,0,21.23-6s-5,11.72-21.27,10.25Z" style="fill:#eb996e"></path><path d="M319.6,200.21a2.32,2.32,0,0,0,2.24,2.35,2.23,2.23,0,0,0,2.4-2.1,2.34,2.34,0,0,0-2.24-2.35A2.23,2.23,0,0,0,319.6,200.21Z" style="fill:#263238"></path><path d="M318.66,197.6c.29.3,2-1,4.55-1s4.34,1.26,4.61,1c.13-.14-.16-.69-1-1.27a6.44,6.44,0,0,0-3.69-1.14,6.16,6.16,0,0,0-3.62,1.17C318.78,196.91,318.52,197.46,318.66,197.6Z" style="fill:#263238"></path><path d="M343.2,200.8a2.33,2.33,0,0,0,2.24,2.35,2.22,2.22,0,0,0,2.4-2.1,2.33,2.33,0,0,0-2.24-2.35A2.22,2.22,0,0,0,343.2,200.8Z" style="fill:#263238"></path><path d="M343.26,198.07c.29.3,2.06-1,4.56-1s4.33,1.26,4.61,1c.13-.13-.16-.68-1-1.26a6.36,6.36,0,0,0-3.69-1.14,6.15,6.15,0,0,0-3.63,1.17C343.38,197.38,343.12,197.93,343.26,198.07Z" style="fill:#263238"></path><path d="M334.18,216.63c0-.14-1.55-.41-4.07-.73-.64-.07-1.24-.2-1.35-.63a3.26,3.26,0,0,1,.43-1.9l1.89-4.87c2.62-6.93,4.52-12.62,4.24-12.73s-2.63,5.43-5.26,12.36q-.94,2.56-1.81,4.9a3.75,3.75,0,0,0-.33,2.51,1.58,1.58,0,0,0,1.05.93,4.17,4.17,0,0,0,1.09.15C332.6,216.76,334.17,216.77,334.18,216.63Z" style="fill:#263238"></path><path d="M341.55,218.36c-.41,0-.42,2.69-2.74,4.62s-5.22,1.63-5.24,2c0,.17.64.53,1.87.56a6.75,6.75,0,0,0,4.37-1.52,5.86,5.86,0,0,0,2.12-3.88C342,219,341.73,218.34,341.55,218.36Z" style="fill:#263238"></path><path d="M342.62,188.26c.24.68,2.74.35,5.68.71s5.31,1.15,5.7.54c.17-.29-.24-.93-1.2-1.59a9.48,9.48,0,0,0-4.22-1.48,9.65,9.65,0,0,0-4.45.52C343.05,187.4,342.51,187.93,342.62,188.26Z" style="fill:#263238"></path><path d="M319.58,190.35c.44.57,2.16,0,4.24,0s3.83.39,4.23-.21c.18-.29-.1-.86-.87-1.39a6.09,6.09,0,0,0-6.82.21C319.63,189.49,319.38,190.08,319.58,190.35Z" style="fill:#263238"></path><path d="M372.87,200.56c.27-.12,11.19-3.31,10.83,7.83s-11.46,8.48-11.47,8.16S372.87,200.56,372.87,200.56Z" style="fill:#ffbe9d"></path><path d="M375.77,212.44c.05,0,.19.14.51.3a1.91,1.91,0,0,0,1.45.08c1.19-.39,2.24-2.23,2.36-4.23a6.33,6.33,0,0,0-.46-2.8,2.24,2.24,0,0,0-1.41-1.54,1,1,0,0,0-1.16.5c-.16.31-.1.53-.16.55s-.23-.2-.13-.65a1.32,1.32,0,0,1,.47-.69,1.49,1.49,0,0,1,1.08-.25,2.76,2.76,0,0,1,2,1.8,6.57,6.57,0,0,1,.57,3.12c-.14,2.24-1.36,4.31-3,4.72a2.1,2.1,0,0,1-1.77-.35C375.78,212.71,375.73,212.46,375.77,212.44Z" style="fill:#eb996e"></path><path d="M309.34,160.61a17.23,17.23,0,0,1,26.75-5.14,16.86,16.86,0,0,1,27.71-3.6c3.12,3.54,4.74,8.35,8.4,11.33,3.16,2.57,7.46,3.43,10.64,6a12.3,12.3,0,0,1-4.39,21.44c3.5,6.3.22,15.33-6.5,17.93l-1.62-.67A23.18,23.18,0,0,1,367,182.31a5.83,5.83,0,0,1-.59,0,13,13,0,0,1-16.94-3.87,14.46,14.46,0,0,1-15.52.65,6,6,0,0,0-2.34-1.06,5.58,5.58,0,0,0-2.92.87,13.7,13.7,0,0,1-7.88,1.59,7.59,7.59,0,0,1-5.92-4.23,1.25,1.25,0,0,1-.19,0,8.75,8.75,0,0,1-6.52-6.31A13.07,13.07,0,0,1,309.34,160.61Z" style="fill:#263238"></path></g></svg>