<?xml version="1.0" standalone="no"?>
<!DOCTYPE svg PUBLIC "-//W3C//DTD SVG 20010904//EN"
 "http://www.w3.org/TR/2001/REC-SVG-20010904/DTD/svg10.dtd">
<svg version="1.0" xmlns="http://www.w3.org/2000/svg"
 width="3840.000000pt" height="2160.000000pt" viewBox="0 0 3840.000000 2160.000000"
 preserveAspectRatio="xMidYMid meet">

<g transform="translate(0.000000,2160.000000) scale(0.100000,-0.100000)"
fill="#5fbff9" stroke="none">
<path d="M12620 17118 c-221 -23 -453 -97 -599 -192 -263 -170 -411 -423 -478
-814 -15 -85 -18 -237 -22 -1269 l-6 -1172 -90 58 c-343 222 -708 364 -1107
430 -575 96 -1327 17 -1866 -195 -628 -248 -1089 -679 -1388 -1299 -243 -506
-365 -1102 -381 -1855 -13 -661 60 -1220 227 -1720 430 -1292 1466 -1962 3015
-1949 471 4 845 61 1215 186 424 143 766 349 1050 633 419 419 679 971 765
1625 34 264 36 460 33 3910 l-3 3410 -21 46 c-12 26 -39 64 -61 86 -71 71
-152 94 -283 81z m-2435 -4272 c172 -29 410 -110 553 -188 355 -193 609 -484
725 -831 63 -186 62 -178 60 -1017 -3 -780 -7 -892 -44 -1085 -101 -532 -433
-919 -926 -1081 -213 -70 -410 -98 -683 -97 -569 1 -965 134 -1235 415 -184
189 -299 395 -381 682 -87 301 -118 573 -118 1036 0 433 22 657 94 935 98 376
220 606 440 825 254 254 573 382 1055 424 88 7 375 -4 460 -18z"/>
<path d="M27725 14203 c-293 -10 -632 -67 -879 -148 -348 -114 -634 -282 -930
-549 l-66 -58 -59 54 c-289 268 -753 493 -1241 602 -442 98 -996 122 -1405 60
-366 -56 -756 -205 -1039 -397 l-109 -74 -47 56 c-187 224 -458 358 -851 420
-187 29 -228 32 -303 16 -116 -24 -217 -100 -266 -200 l-25 -50 -3 -2825 c-2
-1974 0 -2857 8 -2932 35 -348 194 -626 459 -802 165 -110 398 -194 671 -241
206 -36 346 19 417 163 l28 57 6 2165 c6 2325 2 2165 53 2383 53 228 217 457
416 580 225 139 546 210 950 210 307 0 574 -35 764 -101 305 -105 507 -342
590 -692 61 -255 59 -195 66 -2075 7 -1777 6 -1742 47 -1884 65 -227 217 -436
412 -566 174 -115 358 -185 636 -239 153 -30 239 -26 322 16 58 29 126 104
150 166 17 45 18 140 24 2222 6 2358 2 2199 58 2405 120 438 455 671 1045 726
166 15 572 6 716 -16 240 -37 431 -104 570 -198 59 -40 173 -150 215 -207 94
-129 169 -338 211 -590 16 -96 18 -249 24 -1830 7 -1871 3 -1752 60 -1935 66
-209 228 -423 410 -541 193 -124 504 -227 755 -250 85 -8 176 14 235 57 51 37
117 168 130 259 12 81 11 4085 -1 4290 -81 1416 -927 2279 -2409 2460 -213 26
-594 41 -815 33z"/>
<path d="M16505 14190 c-932 -72 -1629 -390 -2133 -974 -164 -190 -286 -377
-402 -618 -188 -393 -295 -792 -357 -1338 -25 -221 -25 -924 0 -1155 77 -707
248 -1230 552 -1685 208 -312 507 -598 831 -795 521 -318 1190 -484 1944 -485
949 0 1932 421 2376 1019 179 240 268 555 220 781 -36 173 -149 329 -282 393
-62 29 -78 32 -159 32 -121 0 -147 -13 -523 -263 -167 -111 -348 -227 -403
-257 -383 -215 -796 -311 -1284 -299 -466 12 -823 112 -1120 313 -357 240
-573 586 -664 1064 -12 59 -24 139 -27 177 l-7 70 2054 2 2054 3 80 22 c212
60 364 180 448 354 81 166 112 321 123 603 17 446 -64 928 -223 1331 -208 527
-540 950 -970 1235 -375 249 -799 393 -1338 455 -164 18 -629 27 -790 15z
m635 -1360 c279 -36 507 -112 690 -231 81 -53 233 -204 285 -284 120 -183 217
-463 241 -696 8 -78 -6 -110 -64 -149 l-36 -25 -1588 -3 c-1357 -2 -1588 0
-1588 12 0 7 9 56 19 107 164 788 655 1213 1481 1279 128 10 444 5 560 -10z"/>
<path d="M31780 14194 c-167 -20 -382 -74 -472 -120 -136 -69 -217 -231 -188
-379 8 -41 416 -963 1293 -2925 704 -1576 1287 -2883 1295 -2906 l16 -40 -109
-255 c-128 -299 -327 -701 -420 -849 -261 -414 -522 -604 -930 -676 -70 -13
-186 -17 -525 -21 -239 -2 -457 -8 -485 -14 -160 -31 -299 -157 -346 -312 -40
-129 -10 -343 71 -513 169 -352 523 -598 974 -676 106 -18 148 -20 336 -15
399 11 737 90 1065 251 259 127 473 283 705 516 300 299 564 678 797 1145 78
156 3329 7195 3342 7237 7 20 12 71 12 113 0 60 -5 87 -25 130 -70 154 -181
218 -484 282 -164 34 -412 38 -562 9 -313 -61 -577 -213 -703 -404 -26 -39
-417 -882 -933 -2010 -800 -1749 -889 -1941 -900 -1920 -6 13 -388 894 -849
1958 -460 1064 -852 1958 -871 1986 -117 176 -390 331 -685 389 -80 16 -344
28 -419 19z"/>
<path d="M1300 13933 c-212 -24 -385 -71 -535 -145 -269 -134 -454 -375 -531
-693 -55 -229 -54 -180 -54 -1895 0 -1613 2 -1694 40 -1955 119 -827 507
-1410 1164 -1750 330 -171 694 -270 1206 -327 157 -18 891 -18 1060 0 815 85
1364 316 1781 748 384 399 589 957 628 1714 5 85 8 1042 7 2125 l-1 1970 -28
57 c-81 166 -235 194 -585 107 -404 -100 -681 -372 -782 -769 -56 -221 -54
-130 -60 -1860 -6 -1416 -8 -1606 -23 -1697 -51 -317 -143 -521 -311 -689 -84
-83 -133 -118 -252 -177 -144 -73 -322 -121 -544 -149 -156 -19 -603 -16 -756
5 -149 21 -323 64 -429 106 -311 125 -505 355 -600 713 -62 233 -59 108 -62
2326 l-4 2024 -21 45 c-52 111 -181 180 -308 166z"/>
</g>
</svg>
