<svg xmlns="http://www.w3.org/2000/svg" width="206" height="308"><rect id="backgroundrect" width="100%" height="100%" x="0" y="0" fill="none" stroke="none"/><g class="currentLayer" style=""><title>Layer 1</title><g id="freepik--Character--inject-2" class=""><path d="M111.73000061035157,113.62158874511721 c14.81,0.37000000000000005 29.78,0.7600000000000001 44.1,4.5600000000000005 s28.15,11.36 36.64,23.5 c9.36,13.36 11.22,30.44 12.15,46.72 A521.33,521.33 0 0 1 203.36000061035156,269.48158874511716 c-1.34,13.64 -6.18,26.32 -18.87,31.51 c-15.26,6.25 -35.77,0 -35.77,0 " style="fill:#263238" id="svg_1"/><path d="M151.45000061035154,297.7415887451172 s0.19000000000000003,0 0.56,0 l1.6500000000000001,0 l6.33,-0.05000000000000001 a71.69,71.69 0 0 0 10,-0.52 c1,-0.16000000000000003 2,-0.27 3,-0.53 l1.54,-0.3400000000000001 c0.52,-0.14 1,-0.31000000000000005 1.57,-0.46 c1.07,-0.28 2.11,-0.7300000000000001 3.2,-1.13 a30.58,30.58 0 0 0 3.2,-1.58 a23.14,23.14 0 0 0 6,-4.76 a18.06,18.06 0 0 0 3.91,-7.2 a85.86,85.86 0 0 0 2.25,-18.23 c0.2,-6.49 0.13,-13.31 0.19000000000000003,-20.39 s0.06000000000000001,-14.39 0.1,-21.89 s0.11000000000000001,-14.83 -0.13,-21.9 a148.81,148.81 0 0 0 -1.92,-20.26 c-2.16,-12.79 -6.63,-23.88 -12.41,-31.82 a71,71 0 0 0 -8.84,-9.82 c-2.85,-2.67 -5.41,-4.85 -7.51,-6.62 l-4.86,-4.05 l-1.25,-1.07 a4.85,4.85 0 0 1 -0.42000000000000004,-0.38000000000000006 s0.16000000000000003,0.11000000000000001 0.45,0.3400000000000001 l1.29,1 l4.92,4 c2.12,1.7400000000000002 4.71,3.9 7.58,6.5600000000000005 a70.17,70.17 0 0 1 8.94,9.82 c5.85,8 10.39,19.11 12.59,32 a148.21,148.21 0 0 1 1.94,20.33 c0.26,7.08 0.18000000000000002,14.41 0.15000000000000002,21.91 s-0.07,14.82 -0.11000000000000001,21.9 s0,13.89 -0.22000000000000003,20.4 a86.42,86.42 0 0 1 -2.31,18.33 a18.49,18.49 0 0 1 -4,7.35 a23.61,23.61 0 0 1 -6.07,4.8100000000000005 a32.26,32.26 0 0 1 -3.24,1.59 c-1.11,0.4 -2.17,0.8400000000000001 -3.25,1.12 l-1.58,0.45 l-1.56,0.3400000000000001 c-1,0.25 -2,0.35000000000000003 -3,0.51 a69.38,69.38 0 0 1 -10,0.43000000000000005 l-6.33,0 l-1.6500000000000001,0 z" style="fill:#455a64" id="svg_2"/><path d="M195.07000061035154,224.48158874511716 a14.77,14.77 0 0 1 5.19,-0.93 a15.07,15.07 0 0 1 5.26,0.44000000000000006 c0,0.15000000000000002 -2.36,-0.06000000000000001 -5.24,0.08000000000000002 S195.10000061035157,224.6315887451172 195.07000061035154,224.48158874511716 z" style="fill:#455a64" id="svg_3"/><path d="M131.0800006103516,114.39158874511719 h0.38000000000000006 l1.13,0 c1,0 2.46,0 4.34,0.17 a66.55,66.55 0 0 1 15.6,3.33 l2.43,0.9 l1.26,0.47000000000000003 l1.24,0.56 l2.5700000000000003,1.17 c0.8800000000000001,0.39000000000000007 1.71,0.8900000000000001 2.6,1.35 a71.05,71.05 0 0 1 10.6,6.93 a73,73 0 0 1 10.2,9.59 a53.69,53.69 0 0 1 8.25,12.55 c4.46,9.35 6.39,19.14 7.38,28 s1,16.92 1,23.66 s0,12.18 0.13,15.95 c0.06000000000000001,1.86 0.1,3.31 0.13,4.34 c0,0.47000000000000003 0,0.8400000000000001 0,1.12 a2.29,2.29 0 0 1 0,0.39000000000000007 a1.6500000000000001,1.6500000000000001 0 0 1 0,-0.38000000000000006 c0,-0.28 0,-0.6600000000000001 -0.08000000000000002,-1.13 c-0.07,-1 -0.14,-2.45 -0.22000000000000003,-4.33 c-0.15000000000000002,-3.77 -0.23,-9.22 -0.30000000000000004,-16 s-0.18000000000000002,-14.76 -1.15,-23.61 s-3,-18.53 -7.37,-27.8 a52.83,52.83 0 0 0 -8.17,-12.44 a71.59,71.59 0 0 0 -10.11,-9.55 a70.39,70.39 0 0 0 -10.51,-6.93 c-0.8700000000000001,-0.46 -1.7000000000000002,-1 -2.5700000000000003,-1.36 l-2.55,-1.17 l-1.24,-0.5700000000000001 l-1.24,-0.47000000000000003 l-2.41,-0.92 a69.87,69.87 0 0 0 -15.5,-3.47 c-1.87,-0.16000000000000003 -3.34,-0.19000000000000003 -4.32,-0.26 l-1.13,-0.07 A1.6500000000000001,1.6500000000000001 0 0 1 131.0800006103516,114.39158874511719 z" style="fill:#e0e0e0" id="svg_4"/><path d="M121.82000061035154,114.36158874511716 s3.63,-9.59 16.56,-7.77 c0,0 5.76,-0.32000000000000006 6.8100000000000005,2.88 c0,0 -12.05,-3 -17.18,5.34 z" style="fill:#263238" id="svg_5"/><path d="M158.67000061035156,126.04158874511717 h-7.57 s-1.47,-20 -19.83,-19.25 C131.2700006103516,106.83158874511719 154.09000061035158,99.15158874511718 158.67000061035156,126.04158874511717 z" style="fill:#455a64" id="svg_6"/><polygon points="195.1800079345703,236.7015838623047 206.0399932861328,238.2015838623047 204.9499969482422,242.0615997314453 194.8199920654297,241.28160095214844 195.1800079345703,236.7015838623047 " style="fill:#455a64" id="svg_7"/><path d="M195.84000061035158,240.1915887451172 a8.85,8.85 0 0 1 1.27,-1.9500000000000002 l0.15000000000000002,-0.2 l0.17,0.2 l1.52,1.85 l-0.35000000000000003,-0.05000000000000001 l1.08,-0.8 l1.13,-0.8200000000000001 l0.2,-0.15000000000000002 l0.15000000000000002,0.21000000000000002 l1.3900000000000001,2 l-0.28,-0.05000000000000001 a9.26,9.26 0 0 1 2,-1.1600000000000001 a8.42,8.42 0 0 1 -1.7200000000000002,1.49 L202.36000061035156,240.8315887451172 l-0.12000000000000001,-0.16000000000000003 l-1.48,-1.9 l0.35000000000000003,0.05000000000000001 l-1.11,0.8300000000000001 l-1.09,0.79 l-0.2,0.15000000000000002 l-0.15000000000000002,-0.2 l-1.44,-1.9 h0.32000000000000006 A8.81,8.81 0 0 1 195.84000061035158,240.1915887451172 z" style="fill:#5FBFF9" id="svg_8"/><path d="M37.36000061035156,308.17158874511716 s-2.1,-6.84 -1.6800000000000002,-9.74 s4.3100000000000005,-5.52 4.3100000000000005,-5.52 l-4.22,-109.65 s-0.54,-48 24.84,-62.87 l15.15,-3.8200000000000003 l37.37,-2.21 c1.21,0.4 45.13,16.92 51.17,23.37 L145.36000061035156,234.4315887451172 s2.3,28.57 4.59,49.1 c0.47000000000000003,4.2 3.62,24.94 3.62,24.94 z" style="fill:#5FBFF9" id="svg_9"/><g style="opacity:0.30000000000000004" id="svg_10"><path d="M149.25000061035155,277.0815887451172 c-0.36000000000000004,2.66 -1.37,5.91 -3.93,6.74 a16.73,16.73 0 0 1 -8,0.11000000000000001 c-9.36,-1.6700000000000002 -18,-6.07 -26.45,-10.41 c-15.81,-8.13 -31.77,-16.34 -45.43,-27.74 c-1.92,-1.6 -4,-4.09 -2.79,-6.3 c1.33,-2.5 5.08,-1.6600000000000001 7.65,-0.47000000000000003 c26.82,12.36 52.12,25.7 78.94,38.07 " id="svg_11"/></g><path d="M54.920000610351565,123.3815887451172 s-16.73,5.58 -22.14,21.08 c-6,17.12 -9.94,50.36 -9.94,50.36 L39.36000061035156,196.90158874511718 z" style="fill:#5FBFF9" id="svg_12"/><path d="M164.28000061035158,137.73158874511716 s9,11.8 13.34,26.14 s6.86,55.89 6.86,55.89 l-45,-0.6200000000000001 l-2.39,-36.57 S132.55000061035156,121.5615887451172 164.28000061035158,137.73158874511716 z" style="fill:#5FBFF9" id="svg_13"/><path d="M28.740000610351558,159.3915887451172 a5.33,5.33 0 0 1 1.25,-1.17 a6.11,6.11 0 0 1 4.73,-0.91 c2.18,0.32000000000000006 4.3,2 7.09,3.1 a8,8 0 0 0 4.640000000000001,0.5700000000000001 c1.6400000000000001,-0.35000000000000003 3.07,-1.53 4.57,-2.68 a12.6,12.6 0 0 1 2.5,-1.57 a4,4 0 0 1 3.11,-0.13 a5.23,5.23 0 0 1 2.42,2.16 c0.6200000000000001,0.9 1.12,1.8800000000000001 1.77,2.7600000000000002 a4.85,4.85 0 0 0 2.54,2 a5.93,5.93 0 0 0 3.34,0 a12.83,12.83 0 0 0 3.26,-1.4100000000000001 c1,-0.6100000000000001 2,-1.35 3.11,-2 a14.77,14.77 0 0 1 3.48,-1.6900000000000002 a6.62,6.62 0 0 1 4,0 a10.46,10.46 0 0 1 3.46,2.12 c1,0.8700000000000001 2,1.83 3.05,2.66 a7.73,7.73 0 0 0 3.56,1.7400000000000002 a7.3100000000000005,7.3100000000000005 0 0 0 4,-0.41000000000000003 c2.6,-1 4.9,-2.74 7.46,-4.15 a13.83,13.83 0 0 1 4.07,-1.6300000000000001 a8.11,8.11 0 0 1 4.34,0.3400000000000001 c2.72,1.06 4.74,3.13 7.16,4.28 a8.6,8.6 0 0 0 1.86,0.6600000000000001 a7.46,7.46 0 0 0 1.94,0.13 a10.870000000000001,10.870000000000001 0 0 0 3.73,-1.07 c2.37,-1.07 4.51,-2.5700000000000003 7,-3.38 a7.6,7.6 0 0 1 3.7800000000000002,-0.33000000000000007 a7.08,7.08 0 0 1 3.29,1.6800000000000002 c1.83,1.53 3.2800000000000002,3.48 5.37,4.13 a6.23,6.23 0 0 0 3.15,0.09000000000000002 a23.24,23.24 0 0 0 3,-0.9 c1.9300000000000002,-0.6800000000000002 3.95,-1.3800000000000001 5.91,-0.93 a6.18,6.18 0 0 1 2.54,1.25 c0.7300000000000001,0.56 1.37,1.18 2,1.7400000000000002 a10.79,10.79 0 0 0 2,1.45 a6.41,6.41 0 0 0 2.16,0.6900000000000002 a9,9 0 0 0 4.09,-0.41000000000000003 a12.26,12.26 0 0 0 3.11,-1.59 a27.23,27.23 0 0 0 3.68,-3.19 l0.9,-0.9 a1.7000000000000002,1.7000000000000002 0 0 1 0.32000000000000006,-0.29000000000000004 s-0.09000000000000002,0.12000000000000001 -0.28,0.33000000000000007 l-0.8600000000000001,0.9400000000000001 a26.21,26.21 0 0 1 -3.6500000000000004,3.2800000000000002 a12.36,12.36 0 0 1 -3.14,1.6500000000000001 a9.2,9.2 0 0 1 -4.21,0.47000000000000003 a6.65,6.65 0 0 1 -2.27,-0.7100000000000001 a11.51,11.51 0 0 1 -2,-1.47 c-1.29,-1.1 -2.5700000000000003,-2.51 -4.41,-2.88 s-3.7600000000000002,0.26 -5.69,0.9500000000000001 a24.21,24.21 0 0 1 -3.06,0.93 a6.72,6.72 0 0 1 -3.36,-0.09000000000000002 a8.22,8.22 0 0 1 -3,-1.81 c-0.8800000000000001,-0.78 -1.6800000000000002,-1.6300000000000001 -2.59,-2.38 a6.48,6.48 0 0 0 -3.08,-1.57 a7.16,7.16 0 0 0 -3.54,0.33000000000000007 c-2.35,0.78 -4.49,2.27 -6.91,3.37 a11.13,11.13 0 0 1 -3.89,1.12 a8.06,8.06 0 0 1 -2.08,-0.13 a9.33,9.33 0 0 1 -2,-0.7000000000000001 c-2.52,-1.21 -4.54,-3.26 -7.13,-4.25 a7.53,7.53 0 0 0 -4.05,-0.32000000000000006 a13.76,13.76 0 0 0 -3.92,1.57 c-2.52,1.3800000000000001 -4.82,3.17 -7.53,4.19 a8,8 0 0 1 -4.26,0.43000000000000005 a8.29,8.29 0 0 1 -3.7800000000000002,-1.85 c-2.17,-1.6900000000000002 -3.91,-3.89 -6.36,-4.7 a6.11,6.11 0 0 0 -3.6900000000000004,0 a14.3,14.3 0 0 0 -3.36,1.6300000000000001 c-1.07,0.6500000000000001 -2.06,1.3900000000000001 -3.14,2 a13.33,13.33 0 0 1 -3.37,1.44 a6.48,6.48 0 0 1 -3.6,0 a5.39,5.39 0 0 1 -2.75,-2.13 c-0.6700000000000002,-0.92 -1.17,-1.9100000000000001 -1.7600000000000002,-2.79 a5,5 0 0 0 -2.22,-2 a3.59,3.59 0 0 0 -2.8200000000000003,0.12000000000000001 a11.74,11.74 0 0 0 -2.43,1.51 c-1.5,1.12 -3,2.33 -4.72,2.71 a8.31,8.31 0 0 1 -4.82,-0.6300000000000001 c-2.83,-1.12 -4.91,-2.83 -7,-3.17 a6.09,6.09 0 0 0 -4.640000000000001,0.8 A11.7,11.7 0 0 0 28.740000610351558,159.3915887451172 z" style="fill:#fafafa" id="svg_14"/><path d="M23.440000610351547,186.4315887451172 a2.43,2.43 0 0 1 0.44000000000000006,0 l1.3,0.13 a11.19,11.19 0 0 0 4.92,-0.13 c1.06,-0.23 2.25,-0.44000000000000006 3.55,-0.6700000000000002 s2.6900000000000004,-0.54 4.23,-0.7200000000000001 a11.74,11.74 0 0 1 5,0.36000000000000004 c1.7000000000000002,0.5 3.35,1.37 5.17,2 a10,10 0 0 0 5.88,0.17 c2,-0.49000000000000005 4,-1.42 6.21,-2.17 a11.69,11.69 0 0 1 7,-0.6900000000000002 c2.42,0.6800000000000002 4.37,2.47 6.79,3.06 a5.45,5.45 0 0 0 1.84,0.13 a8.59,8.59 0 0 0 1.85,-0.44000000000000006 c1.22,-0.42000000000000004 2.4,-1 3.6900000000000004,-1.49 a5.890000000000001,5.890000000000001 0 0 1 4.14,-0.14 a14.8,14.8 0 0 1 3.5,2.3200000000000003 a8.39,8.39 0 0 0 1.7400000000000002,1.05 a4.72,4.72 0 0 0 2,0.37000000000000005 a10.620000000000001,10.620000000000001 0 0 0 4,-1.19 a22.85,22.85 0 0 1 4.08,-1.6300000000000001 a6.65,6.65 0 0 1 2.27,-0.16000000000000003 a6.35,6.35 0 0 1 2.18,0.7100000000000001 a38,38 0 0 1 3.66,2.51 a8.9,8.9 0 0 0 1.86,1 a4.78,4.78 0 0 0 1,0.28 l0.51,0.09000000000000002 l0.52,0 a11.37,11.37 0 0 0 4.08,-0.8500000000000001 c1.32,-0.48000000000000004 2.62,-1.05 4,-1.45 a7.93,7.93 0 0 1 4.21,-0.31000000000000005 a7.78,7.78 0 0 1 3.55,2.14 a27.42,27.42 0 0 0 2.92,2.64 a5.47,5.47 0 0 0 3.52,1 a9.59,9.59 0 0 0 3.52,-1.07 c1.11,-0.54 2.16,-1.17 3.23,-1.7600000000000002 c2.1,-1.17 4.41,-2.24 6.8,-2 a13.09,13.09 0 0 1 6,2.81 a34.43,34.43 0 0 0 5,3.37 a14.66,14.66 0 0 0 5.24,1.42 a18.64,18.64 0 0 0 4.86,-0.37000000000000005 a17.38,17.38 0 0 0 7,-3.41 a16,16 0 0 0 3.26,-3.72 c0.28,-0.49000000000000005 0.47000000000000003,-0.8900000000000001 0.6100000000000001,-1.1400000000000001 a3.52,3.52 0 0 1 0.22000000000000003,-0.39000000000000007 a2.44,2.44 0 0 1 -0.17,0.41000000000000003 c-0.13,0.26 -0.30000000000000004,0.6700000000000002 -0.5700000000000001,1.17 a15.08,15.08 0 0 1 -3.22,3.8200000000000003 a17.44,17.44 0 0 1 -7.05,3.54 a18.29,18.29 0 0 1 -4.94,0.42000000000000004 a14.8,14.8 0 0 1 -5.38,-1.42 a33.69,33.69 0 0 1 -5.09,-3.37 a12.77,12.77 0 0 0 -5.8100000000000005,-2.71 c-2.24,-0.25 -4.45,0.77 -6.54,1.94 c-1.05,0.5900000000000001 -2.11,1.23 -3.25,1.78 a10.05,10.05 0 0 1 -3.6900000000000004,1.13 a6,6 0 0 1 -3.8200000000000003,-1.08 a26.33,26.33 0 0 1 -3,-2.68 a7.27,7.27 0 0 0 -3.33,-2 a7.45,7.45 0 0 0 -3.95,0.31000000000000005 c-1.32,0.39000000000000007 -2.6100000000000003,1 -3.95,1.44 a11.71,11.71 0 0 1 -4.26,0.8900000000000001 l-0.5700000000000001,0 l-0.55,-0.1 a4.53,4.53 0 0 1 -1.09,-0.31000000000000005 a9.54,9.54 0 0 1 -2,-1.07 a39.94,39.94 0 0 0 -3.6100000000000003,-2.48 a5.73,5.73 0 0 0 -2,-0.6500000000000001 a6.42,6.42 0 0 0 -2.09,0.14 a23.81,23.81 0 0 0 -4,1.6 a11.25,11.25 0 0 1 -4.18,1.24 a5.5600000000000005,5.5600000000000005 0 0 1 -2.18,-0.41000000000000003 a9,9 0 0 1 -1.84,-1.12 a15.41,15.41 0 0 0 -3.37,-2.26 a5.44,5.44 0 0 0 -3.81,0.14 c-1.24,0.43000000000000005 -2.43,1.05 -3.6900000000000004,1.48 a8.74,8.74 0 0 1 -2,0.46 a6.11,6.11 0 0 1 -2,-0.14 c-2.59,-0.6600000000000001 -4.52,-2.45 -6.8100000000000005,-3.09 a11.29,11.29 0 0 0 -6.78,0.6500000000000001 a65.5,65.5 0 0 1 -6.26,2.16 a10.32,10.32 0 0 1 -6.09,-0.22000000000000003 c-1.86,-0.6300000000000001 -3.49,-1.51 -5.15,-2 a11.41,11.41 0 0 0 -4.8100000000000005,-0.38000000000000006 c-1.52,0.16000000000000003 -2.93,0.46 -4.23,0.6800000000000002 s-2.49,0.4 -3.55,0.6200000000000001 c-0.53,0.1 -1,0.22000000000000003 -1.52,0.29000000000000004 a5.640000000000001,5.640000000000001 0 0 1 -1.36,0 c-0.8300000000000001,-0.09000000000000002 -1.53,-0.19000000000000003 -2.1,-0.27 l-1.28,-0.18000000000000002 A2.2800000000000002,2.2800000000000002 0 0 1 23.440000610351547,186.4315887451172 z" style="fill:#fafafa" id="svg_15"/><path d="M40.09000061035158,210.0115887451172 h0.30000000000000004 l0.8700000000000001,0.09000000000000002 c0.7600000000000001,0.08000000000000002 1.8800000000000001,0.23 3.3200000000000003,0.45 c2.89,0.39000000000000007 7,1.25 12.21,1.6800000000000002 a42.6,42.6 0 0 0 8.47,-0.15000000000000002 a20.13,20.13 0 0 1 4.79,0 a8.55,8.55 0 0 1 2.43,0.7100000000000001 a12.18,12.18 0 0 1 2.18,1.42 c1.36,1 2.6500000000000004,2.33 4.32,2.83 a4.52,4.52 0 0 0 2.55,0 a17.63,17.63 0 0 0 2.54,-1 a9.9,9.9 0 0 1 2.75,-0.92 a4.3,4.3 0 0 1 2.92,0.6300000000000001 c1.73,1.05 2.8600000000000003,2.8 4.62,3.54 s3.77,0.29000000000000004 5.58,-0.24000000000000002 a21.78,21.78 0 0 1 5.62,-1.31 a6.3100000000000005,6.3100000000000005 0 0 1 2.81,0.5900000000000001 a10.08,10.08 0 0 1 2.31,1.56 a19.8,19.8 0 0 0 4.12,3.18 a6.27,6.27 0 0 0 4.74,0 c1.54,-0.48000000000000004 2.95,-1.23 4.49,-1.58 a6.58,6.58 0 0 1 4.47,0.3400000000000001 a3.6100000000000003,3.6100000000000003 0 0 1 1.53,1.54 a13.84,13.84 0 0 1 0.7000000000000001,1.9 a4.25,4.25 0 0 0 0.8600000000000001,1.6 a3.51,3.51 0 0 0 1.4300000000000002,0.93 a5.27,5.27 0 0 0 3.17,0 a5.68,5.68 0 0 0 2.37,-1.46 a9.89,9.89 0 0 0 1.45,-1.9 a21.52,21.52 0 0 0 1.4,-3 c0.14,-0.33000000000000007 0.24000000000000002,-0.6000000000000001 0.32000000000000006,-0.81 a1.1600000000000001,1.1600000000000001 0 0 1 0.13,-0.27 a1.33,1.33 0 0 1 -0.08000000000000002,0.29000000000000004 l-0.27,0.8300000000000001 a18.7,18.7 0 0 1 -1.33,3.09 a9.37,9.37 0 0 1 -1.44,2 a6,6 0 0 1 -2.46,1.57 a5.5600000000000005,5.5600000000000005 0 0 1 -3.36,0.05000000000000001 a3.79,3.79 0 0 1 -1.59,-1 a4.61,4.61 0 0 1 -1,-1.7200000000000002 a14.49,14.49 0 0 0 -0.6900000000000002,-1.84 a3.29,3.29 0 0 0 -1.37,-1.37 a6.16,6.16 0 0 0 -4.19,-0.26 c-1.46,0.33000000000000007 -2.88,1.08 -4.45,1.59 a9.25,9.25 0 0 1 -2.49,0.49000000000000005 a5.84,5.84 0 0 1 -2.59,-0.5 a20.2,20.2 0 0 1 -4.24,-3.24 a10.52,10.52 0 0 0 -2.2,-1.49 a6,6 0 0 0 -2.59,-0.53 a21.66,21.66 0 0 0 -5.48,1.29 a15.27,15.27 0 0 1 -2.9,0.6400000000000001 a6,6 0 0 1 -3,-0.41000000000000003 c-1.9500000000000002,-0.8500000000000001 -3.09,-2.63 -4.69,-3.58 a3.77,3.77 0 0 0 -2.59,-0.56 a9.37,9.37 0 0 0 -2.6,0.8700000000000001 a17.64,17.64 0 0 1 -2.6100000000000003,1.07 a5,5 0 0 1 -2.83,0 c-1.84,-0.5700000000000001 -3.14,-1.9 -4.48,-2.93 a11.31,11.31 0 0 0 -2.08,-1.37 a8.14,8.14 0 0 0 -2.3,-0.6900000000000002 a19.79,19.79 0 0 0 -4.68,0 a43.05,43.05 0 0 1 -8.54,0.09000000000000002 c-5.21,-0.48000000000000004 -9.33,-1.4 -12.21,-1.85 l-3.31,-0.55 l-0.8600000000000001,-0.13 z" style="fill:#fafafa" id="svg_16"/><path d="M38.69000061035155,276.7015887451172 l0.30000000000000004,-0.12000000000000001 l0.8700000000000001,-0.30000000000000004 c0.77,-0.27 1.9100000000000001,-0.6800000000000002 3.38,-1.1600000000000001 A25.89,25.89 0 0 1 48.76000061035154,273.8315887451172 a8.18,8.18 0 0 1 3.52,0.5800000000000001 a16.1,16.1 0 0 0 3.75,1.07 a8.11,8.11 0 0 0 4.1,-0.92 a23.33,23.33 0 0 1 4.41,-1.77 a10.82,10.82 0 0 1 5.1,0.30000000000000004 c1.6900000000000002,0.45 3.36,1.12 5.1,1.6300000000000001 a11.1,11.1 0 0 0 5.43,0.46 a34.28,34.28 0 0 0 5.43,-2.11 a9.09,9.09 0 0 1 3,-0.7100000000000001 a5.44,5.44 0 0 1 3.06,0.81 c1.83,1.08 3.14,2.8600000000000003 5.06,3.5700000000000003 a5,5 0 0 0 2.95,0.07 a18.07,18.07 0 0 0 2.8600000000000003,-1.09 a21,21 0 0 1 2.88,-1.1400000000000001 a5.43,5.43 0 0 1 3.12,-0.07 a6.14,6.14 0 0 1 2.54,1.6900000000000002 c0.7000000000000001,0.7100000000000001 1.32,1.45 2,2.05 a5.5600000000000005,5.5600000000000005 0 0 0 5.08,1.07 c1.77,-0.35000000000000003 3.44,-1 5.13,-1.49 a10.41,10.41 0 0 1 2.59,-0.39000000000000007 a4.79,4.79 0 0 1 2.49,0.6100000000000001 a5,5 0 0 1 1.81,1.6800000000000002 c0.46,0.6600000000000001 0.8200000000000001,1.35 1.19,2 a5.5600000000000005,5.5600000000000005 0 0 0 2.91,2.9 a4.92,4.92 0 0 0 3.7,-0.38000000000000006 a8.63,8.63 0 0 0 2.73,-2.08 a25.71,25.71 0 0 0 2.89,-4.8 a20,20 0 0 1 1.8800000000000001,-3.05 a6.88,6.88 0 0 1 0.8500000000000001,-0.91 s-0.28,0.32000000000000006 -0.7600000000000001,1 a21.5,21.5 0 0 0 -1.79,3.07 a25.21,25.21 0 0 1 -2.85,4.9 a8.77,8.77 0 0 1 -2.81,2.19 a5.26,5.26 0 0 1 -4,0.43000000000000005 a6,6 0 0 1 -3.14,-3.05 c-0.7500000000000001,-1.29 -1.45,-2.79 -2.8600000000000003,-3.51 s-3.12,-0.5800000000000001 -4.75,-0.15000000000000002 s-3.3200000000000003,1.1400000000000001 -5.15,1.51 a7.37,7.37 0 0 1 -2.85,0.1 a6,6 0 0 1 -1.42,-0.43000000000000005 a6.1,6.1 0 0 1 -1.24,-0.8300000000000001 c-0.7500000000000001,-0.6400000000000001 -1.3800000000000001,-1.3900000000000001 -2.06,-2.07 a5.52,5.52 0 0 0 -2.34,-1.56 a5,5 0 0 0 -2.83,0.07 a21.35,21.35 0 0 0 -2.81,1.12 a16.8,16.8 0 0 1 -2.95,1.12 a5.55,5.55 0 0 1 -3.25,-0.08000000000000002 c-2.12,-0.81 -3.42,-2.62 -5.14,-3.62 a4.92,4.92 0 0 0 -2.7800000000000002,-0.7300000000000001 a8.54,8.54 0 0 0 -2.84,0.6700000000000002 a34.06,34.06 0 0 1 -5.51,2.12 a11.57,11.57 0 0 1 -5.66,-0.49000000000000005 c-1.78,-0.53 -3.43,-1.2 -5.09,-1.6500000000000001 a10.5,10.5 0 0 0 -4.890000000000001,-0.32000000000000006 a23.49,23.49 0 0 0 -4.34,1.7200000000000002 a8.56,8.56 0 0 1 -4.3,0.92 a16.27,16.27 0 0 1 -3.8200000000000003,-1.12 a7.88,7.88 0 0 0 -3.39,-0.6100000000000001 a26.72,26.72 0 0 0 -5.48,1.19 l-3.4,1.07 l-0.9,0.25 A1,1 0 0 1 38.69000061035155,276.7015887451172 z" style="fill:#fafafa" id="svg_17"/><path d="M94.87000061035155,251.9315887451172 a3.25,3.25 0 0 1 -0.5700000000000001,0.37000000000000005 a13.14,13.14 0 0 1 -1.7600000000000002,0.8 a14.46,14.46 0 0 1 -7.05,0.7300000000000001 a14.88,14.88 0 0 1 -2.3200000000000003,-0.54 c-0.79,-0.25 -1.58,-0.6100000000000001 -2.38,-0.9500000000000001 a5.57,5.57 0 0 0 -2.54,-0.52 a5.38,5.38 0 0 0 -2.52,1.08 c-0.79,0.56 -1.56,1.23 -2.47,1.79 a6,6 0 0 1 -1.5,0.6600000000000001 a3.87,3.87 0 0 1 -0.8300000000000001,0.12000000000000001 a3,3 0 0 1 -0.8500000000000001,0 c-2.2800000000000002,-0.29000000000000004 -4.1,-1.8 -6.09,-2.8 a5.4,5.4 0 0 0 -3.09,-0.79 l-0.38000000000000006,0.05000000000000001 a2.5300000000000002,2.5300000000000002 0 0 0 -0.36000000000000004,0.12000000000000001 a2.6100000000000003,2.6100000000000003 0 0 0 -0.7000000000000001,0.32000000000000006 a6.25,6.25 0 0 0 -1.17,1 a20.15,20.15 0 0 1 -2.2,2.34 a3.23,3.23 0 0 1 -1.49,0.6800000000000002 a2.73,2.73 0 0 1 -1.6,-0.23 a6,6 0 0 1 -2.12,-2.1 a20.11,20.11 0 0 0 -1.59,-2.18 a5.57,5.57 0 0 0 -4.25,-1.6900000000000002 a6.28,6.28 0 0 0 -3.59,1.45 A8.64,8.64 0 0 0 39.36000061035156,253.8315887451172 a4.53,4.53 0 0 0 -0.81,2.39 a1.9300000000000002,1.9300000000000002 0 0 1 0,-0.6700000000000002 a4.43,4.43 0 0 1 0.6600000000000001,-1.83 a8.56,8.56 0 0 1 2.08,-2.27 a6.65,6.65 0 0 1 3.75,-1.59 a5.92,5.92 0 0 1 4.59,1.77 A21.52,21.52 0 0 1 51.26000061035154,253.8315887451172 a5.57,5.57 0 0 0 1.94,1.92 a2.4,2.4 0 0 0 2.59,-0.41000000000000003 a22.49,22.49 0 0 0 2.13,-2.2800000000000002 a6.53,6.53 0 0 1 1.27,-1.12 a3.6500000000000004,3.6500000000000004 0 0 1 0.8,-0.37000000000000005 l0.42000000000000004,-0.14 l0.44000000000000006,-0.06000000000000001 a6,6 0 0 1 3.38,0.8400000000000001 c2,1 3.84,2.51 5.91,2.77 a4.3,4.3 0 0 0 2.8600000000000003,-0.6900000000000002 c0.8600000000000001,-0.52 1.6400000000000001,-1.18 2.46,-1.75 a4.92,4.92 0 0 1 5.5,-0.5700000000000001 c0.81,0.36000000000000004 1.57,0.7100000000000001 2.33,1 a15.4,15.4 0 0 0 2.25,0.56 a14.86,14.86 0 0 0 6.93,-0.56 C94.05000061035156,252.3915887451172 94.84000061035158,251.8815887451172 94.87000061035155,251.9315887451172 z" style="fill:#fafafa" id="svg_18"/><path d="M39.670000610351565,303.42158874511716 a1.19,1.19 0 0 1 0.30000000000000004,0.08000000000000002 l0.37000000000000005,0.12000000000000001 l0.52,0.08000000000000002 a6.26,6.26 0 0 0 3.35,-0.8200000000000001 A25.33,25.33 0 0 1 49.36000061035156,300.6315887451172 a5.83,5.83 0 0 1 1.73,-0.09000000000000002 a5.63,5.63 0 0 1 1.75,0.5800000000000001 a26.17,26.17 0 0 1 3.22,2.26 a5.75,5.75 0 0 0 3.84,1.36 a13.76,13.76 0 0 0 4.29,-1.55 a10.24,10.24 0 0 1 2.38,-0.79 a7.11,7.11 0 0 1 2.6,0.06000000000000001 c1.7400000000000002,0.32000000000000006 3.37,1.06 5.09,1.53 a10.68,10.68 0 0 0 5.39,0.08000000000000002 a38.46,38.46 0 0 0 5.47,-1.81 a25.23,25.23 0 0 1 5.82,-1.6800000000000002 a11,11 0 0 1 6.17,1 c1.94,0.8400000000000001 3.71,1.92 5.58,2.67 a8.64,8.64 0 0 0 5.71,0.53 c3.73,-1.07 6.46,-4.09 10,-5.26 a8.18,8.18 0 0 1 5.35,0 a18.68,18.68 0 0 1 4.47,2.31 c1.35,0.8900000000000001 2.62,1.79 3.91,2.52 a14.33,14.33 0 0 0 3.93,1.58 a14.8,14.8 0 0 0 7.23,-0.31000000000000005 a15,15 0 0 0 4.9,-2.51 a15.24,15.24 0 0 0 3.2,-3.47 a1.56,1.56 0 0 1 -0.15000000000000002,0.28 l-0.49000000000000005,0.78 a13.28,13.28 0 0 1 -2.44,2.5700000000000003 A15.19,15.19 0 0 1 143.36000061035156,305.8315887451172 a13.89,13.89 0 0 1 -11.44,-1.2 c-1.32,-0.7300000000000001 -2.59,-1.6300000000000001 -3.94,-2.5 a18.1,18.1 0 0 0 -4.38,-2.24 a7.67,7.67 0 0 0 -5.05,0 a21.68,21.68 0 0 0 -4.82,2.63 a19.22,19.22 0 0 1 -5.22,2.68 a9.26,9.26 0 0 1 -6,-0.54 c-1.92,-0.78 -3.6900000000000004,-1.86 -5.59,-2.6900000000000004 a10.53,10.53 0 0 0 -5.9,-0.93 a24.81,24.81 0 0 0 -5.7,1.6300000000000001 a37.93,37.93 0 0 1 -5.55,1.83 a11.24,11.24 0 0 1 -5.62,-0.11000000000000001 c-1.77,-0.49000000000000005 -3.38,-1.23 -5,-1.54 a6.48,6.48 0 0 0 -2.44,-0.07 a9.5,9.5 0 0 0 -2.2800000000000002,0.7400000000000001 a14.1,14.1 0 0 1 -4.44,1.56 a6.09,6.09 0 0 1 -4.09,-1.46 a26.66,26.66 0 0 0 -3.15,-2.26 a5.43,5.43 0 0 0 -1.6400000000000001,-0.5700000000000001 a5.21,5.21 0 0 0 -1.6300000000000001,0.06000000000000001 a26.21,26.21 0 0 0 -5.1,2.16 a6.2,6.2 0 0 1 -3.44,0.7300000000000001 c-0.21000000000000002,0 -0.38000000000000006,-0.06000000000000001 -0.53,-0.1 l-0.36000000000000004,-0.15000000000000002 A1.42,1.42 0 0 1 39.670000610351565,303.42158874511716 z" style="fill:#fafafa" id="svg_19"/><path d="M42.140000610351535,131.48158874511716 s0.30000000000000004,0.36000000000000004 1,0.9 a8.17,8.17 0 0 0 3.44,1.5 a20.08,20.08 0 0 0 6,0.12000000000000001 c1.17,-0.09000000000000002 2.43,-0.21000000000000002 3.7800000000000002,-0.19000000000000003 a11.73,11.73 0 0 1 4.2,0.7500000000000001 a39.18,39.18 0 0 1 4.14,2.17 a14.4,14.4 0 0 0 2.23,1 a9.59,9.59 0 0 0 2.47,0.4 a24.71,24.71 0 0 0 5.3100000000000005,-0.6000000000000001 a19.61,19.61 0 0 1 5.77,-0.44000000000000006 a14.09,14.09 0 0 1 5.61,2.33 a15.34,15.34 0 0 0 5.6,2.49 a8.86,8.86 0 0 0 3.11,-0.21000000000000002 a19.44,19.44 0 0 0 3,-1.1400000000000001 a38.26,38.26 0 0 1 6.2,-2.64 a8.91,8.91 0 0 1 3.45,-0.2 a9.9,9.9 0 0 1 3.19,1.19 c1.9500000000000002,1.1 3.6100000000000003,2.52 5.52,3.4 a10.24,10.24 0 0 0 6,0.7400000000000001 a36.69,36.69 0 0 0 5.79,-1.5 a32.45,32.45 0 0 1 5.61,-1.35 a15.38,15.38 0 0 1 5.44,0.3400000000000001 a68.34,68.34 0 0 1 9.12,3.37 a15.34,15.34 0 0 0 7.74,1.23 a18.37,18.37 0 0 0 5.8,-1.46 a11.26,11.26 0 0 0 4.1,-3 a6.32,6.32 0 0 1 -0.8600000000000001,1 a10.74,10.74 0 0 1 -3.16,2.16 a18.67,18.67 0 0 1 -5.85,1.56 a17.33,17.33 0 0 1 -3.8,0 a15.56,15.56 0 0 1 -4.1,-1.1400000000000001 a68,68 0 0 0 -9.09,-3.29 a14.81,14.81 0 0 0 -5.29,-0.31000000000000005 a33.91,33.91 0 0 0 -5.52,1.36 a38.27,38.27 0 0 1 -5.85,1.54 a10.88,10.88 0 0 1 -6.29,-0.77 c-2,-0.92 -3.66,-2.36 -5.5600000000000005,-3.42 a9.39,9.39 0 0 0 -3,-1.13 a8.26,8.26 0 0 0 -3.24,0.2 a37.3,37.3 0 0 0 -6.11,2.6100000000000003 a20.14,20.14 0 0 1 -3.12,1.1600000000000001 a9.18,9.18 0 0 1 -3.3,0.21000000000000002 a15.59,15.59 0 0 1 -5.79,-2.5700000000000003 a13.66,13.66 0 0 0 -5.41,-2.27 c-3.85,-0.42000000000000004 -7.47,1.17 -11,1 a9.7,9.7 0 0 1 -2.58,-0.45 a14,14 0 0 1 -2.29,-1 a39.92,39.92 0 0 0 -4.08,-2.18 c-2.74,-1.09 -5.51,-0.7500000000000001 -7.83,-0.6100000000000001 a19.84,19.84 0 0 1 -6.05,-0.21000000000000002 a8,8 0 0 1 -3.46,-1.62 A4.71,4.71 0 0 1 42.140000610351535,131.48158874511716 z" style="fill:#fafafa" id="svg_20"/><g style="opacity:0.30000000000000004" id="svg_21"><path d="M117.15000061035158,142.98158874511716 l14.12,9.77 c-4.49,11.13 -0.3400000000000001,26.58 3.56,39.22 c1.51,4.92 6.52,10 6.27,15.18 s4.07,13.88 -0.91,15.18 c-3.3,0.8700000000000001 -6.890000000000001,-0.26 -9.64,-2.2800000000000002 a26.93,26.93 0 0 1 -6.5600000000000005,-7.78 C114.07000061035154,196.23158874511716 109.44000061035155,165.55158874511721 117.15000061035158,142.98158874511716 z" id="svg_22"/></g><path d="M42.82000061035154,294.9115887451172 a1.82,1.82 0 0 1 0.54,0.06000000000000001 l1.52,0.28 l5.58,1.06 c4.71,0.8900000000000001 11.24,2 18.48,3 s13.83,1.7000000000000002 18.6,2.14 l5.66,0.5 l1.54,0.15000000000000002 a1.9,1.9 0 0 1 0.53,0.09000000000000002 a2.27,2.27 0 0 1 -0.54,0 l-1.54,-0.05000000000000001 c-1.35,-0.06000000000000001 -3.2800000000000002,-0.17 -5.68,-0.3400000000000001 c-4.78,-0.35000000000000003 -11.39,-1 -18.64,-2 s-13.78,-2.21 -18.48,-3.19 c-2.35,-0.48000000000000004 -4.25,-0.91 -5.55,-1.22 l-1.5,-0.38000000000000006 A2.3200000000000003,2.3200000000000003 0 0 1 42.82000061035154,294.9115887451172 z" style="fill:#263238" id="svg_23"/><path d="M64.80000061035156,292.3015887451172 a8.15,8.15 0 0 1 0.8300000000000001,0.18000000000000002 c0.54,0.12000000000000001 1.32,0.38000000000000006 2.36,0.5700000000000001 a48.41,48.41 0 0 0 8.83,1.1400000000000001 a49.64,49.64 0 0 0 13.11,-1.21 a47.4,47.4 0 0 0 26.89,-16.79 a50.31,50.31 0 0 0 9.71,-19.68 c0.27,-1 0.38000000000000006,-1.83 0.52,-2.37 a4.2,4.2 0 0 1 0.2,-0.8200000000000001 a5.27,5.27 0 0 1 -0.1,0.8400000000000001 c-0.1,0.55 -0.18000000000000002,1.37 -0.43000000000000005,2.4 a46,46 0 0 1 -2.71,8.53 a49.35,49.35 0 0 1 -6.8100000000000005,11.4 a48.43,48.43 0 0 1 -40.4,18.07 a45.36,45.36 0 0 1 -8.86,-1.31 c-1,-0.23 -1.81,-0.52 -2.34,-0.6700000000000002 A3.94,3.94 0 0 1 64.80000061035156,292.3015887451172 z" style="fill:#263238" id="svg_24"/><path d="M73.66000061035157,116.52158874511719 a3.2,3.2 0 0 1 0,0.7300000000000001 c0,0.52 0,1.2 0,2.06 a29.79,29.79 0 0 0 0.7600000000000001,7.49 a13.59,13.59 0 0 0 2.16,4.66 a13.36,13.36 0 0 0 4.47,3.79 a22.44,22.44 0 0 0 6.18,2.21 a28.9,28.9 0 0 0 7,0.6800000000000002 a25.82,25.82 0 0 0 13,-3.67 a20.52,20.52 0 0 0 7.46,-8.09 a18.22,18.22 0 0 0 1.94,-7.22 c0.07,-1.78 -0.12000000000000001,-2.7600000000000002 -0.05000000000000001,-2.77 a5.15,5.15 0 0 1 0.13,0.7100000000000001 a14.48,14.48 0 0 1 0.13,2.07 a17.67,17.67 0 0 1 -1.82,7.37 a20.64,20.64 0 0 1 -7.54,8.34 a26,26 0 0 1 -13.23,3.7800000000000002 a29.39,29.39 0 0 1 -7.14,-0.7000000000000001 a22.82,22.82 0 0 1 -6.3,-2.29 a13.59,13.59 0 0 1 -4.59,-4 a13.82,13.82 0 0 1 -2.17,-4.82 a28.46,28.46 0 0 1 -0.6100000000000001,-7.58 c0,-0.9 0.08000000000000002,-1.6 0.12000000000000001,-2.07 A3.2,3.2 0 0 1 73.66000061035157,116.52158874511719 z" style="fill:#263238" id="svg_25"/><path d="M67.55000061035156,118.2615887451172 s-24.33,0.93 -30.11,25.22 c-6.69,28.15 -2.6500000000000004,59.17 5.76,74.71 l0.39000000000000007,-27.68 a127.17,127.17 0 0 1 13.53,-55.27 z" style="fill:#455a64" id="svg_26"/><path d="M38.95000061035154,198.1315887451172 a4.67,4.67 0 0 1 -0.06000000000000001,-0.8500000000000001 c0,-0.6000000000000001 0,-1.4100000000000001 -0.08000000000000002,-2.43 s-0.06000000000000001,-2.35 0,-3.85 s0,-3.22 0.17,-5.1 q0.09000000000000002,-1.4300000000000002 0.18000000000000002,-3 c0.07,-1 0.2,-2.09 0.30000000000000004,-3.2 c0.19000000000000003,-2.22 0.55,-4.57 0.8900000000000001,-7 a149.74,149.74 0 0 1 3.46,-15.9 a147.18,147.18 0 0 1 5.36,-15.36 c1,-2.3 1.92,-4.49 2.93,-6.48 c0.49000000000000005,-1 0.93,-2 1.4100000000000001,-2.89 s0.9500000000000001,-1.79 1.4,-2.62 c0.8600000000000001,-1.6800000000000002 1.77,-3.14 2.52,-4.44 s1.44,-2.39 2,-3.2800000000000002 l1.34,-2 a4.53,4.53 0 0 1 0.5,-0.6900000000000002 a6.44,6.44 0 0 1 -0.41000000000000003,0.7500000000000001 L59.62000061035155,121.83158874511719 c-0.56,0.9 -1.23,2 -1.9500000000000002,3.3200000000000003 s-1.61,2.77 -2.45,4.46 l-1.36,2.63 c-0.47000000000000003,0.92 -0.9,1.9 -1.3800000000000001,2.9 c-1,2 -1.8900000000000001,4.18 -2.87,6.47 a139.62,139.62 0 0 0 -8.79,31.16 c-0.36000000000000004,2.46 -0.7400000000000001,4.8 -0.9400000000000001,7 c-0.11000000000000001,1.11 -0.25,2.17 -0.33000000000000007,3.2 s-0.15000000000000002,2 -0.21000000000000002,2.95 c-0.17,1.8800000000000001 -0.19000000000000003,3.59 -0.25,5.08 s-0.08000000000000002,2.79 -0.08000000000000002,3.85 s0,1.83 0,2.43 A5,5 0 0 1 38.95000061035154,198.1315887451172 z" style="fill:#263238" id="svg_27"/><path d="M50.08000061035159,124.42158874511716 a3,3 0 0 1 -0.29000000000000004,0.6500000000000001 c-0.24000000000000002,0.46 -0.54,1.07 -0.93,1.82 c-0.8300000000000001,1.56 -1.9500000000000002,3.87 -3.26,6.75 c-0.6300000000000001,1.46 -1.36,3 -2,4.77 c-0.33000000000000007,0.8700000000000001 -0.7100000000000001,1.7600000000000002 -1,2.6900000000000004 s-0.6600000000000001,1.9 -1,2.89 a113.08,113.08 0 0 0 -3.52,13.13 a125.78,125.78 0 0 0 -2.25,24.59 c0,3.17 0.08000000000000002,5.73 0.17,7.5 c0,0.8500000000000001 0.06000000000000001,1.53 0.07,2.05 a2.7800000000000002,2.7800000000000002 0 0 1 0,0.7100000000000001 a4.42,4.42 0 0 1 -0.09000000000000002,-0.7100000000000001 c0,-0.51 -0.1,-1.19 -0.17,-2 c-0.15000000000000002,-1.77 -0.27,-4.34 -0.3400000000000001,-7.51 a118.12,118.12 0 0 1 2.11,-24.7 A107.68,107.68 0 0 1 41.09000061035158,143.8315887451172 c0.35000000000000003,-1 0.6900000000000002,-1.9500000000000002 1,-2.89 s0.7300000000000001,-1.82 1.07,-2.6900000000000004 c0.6700000000000002,-1.7400000000000002 1.4300000000000002,-3.31 2.08,-4.76 c1.35,-2.87 2.5300000000000002,-5.16 3.42,-6.7 l1,-1.77 A3.8200000000000003,3.8200000000000003 0 0 1 50.08000061035159,124.42158874511716 z" style="fill:#263238" id="svg_28"/><path d="M146.16000061035157,127.6315887451172 s-16.35,44.48 -4.3,82 l0.6600000000000001,13.27 s-9.22,-0.6300000000000001 -16.19,-13.79 s-9.23,-26.76 -11.59,-46.35 s8.37,-44.53 8.37,-44.53 S142.15000061035158,122.43158874511721 146.16000061035157,127.6315887451172 z" style="fill:#455a64" id="svg_29"/><path d="M142.95000061035154,221.8315887451172 a1.06,1.06 0 0 1 -0.24000000000000002,-0.12000000000000001 l-0.6800000000000002,-0.38000000000000006 a13.71,13.71 0 0 1 -2.34,-1.86 a21.93,21.93 0 0 1 -5.18,-9.61 a55.73,55.73 0 0 1 -1.6,-7.41 c-0.47000000000000003,-2.6900000000000004 -0.8500000000000001,-5.57 -1.19,-8.620000000000001 a153.47,153.47 0 0 1 -0.8600000000000001,-19.9 a151.12,151.12 0 0 1 1.73,-19.85 a120.47,120.47 0 0 1 3.4,-15.91 a47.81,47.81 0 0 1 4.19,-10.14 a29.06,29.06 0 0 1 1.59,-2.5300000000000002 l0.45,-0.6200000000000001 l0.17,-0.21000000000000002 s0,0.09000000000000002 -0.12000000000000001,0.24000000000000002 l-0.42000000000000004,0.6500000000000001 c-0.36000000000000004,0.5800000000000001 -0.8800000000000001,1.4300000000000002 -1.5,2.5700000000000003 a51.22,51.22 0 0 0 -4,10.14 a126.9,126.9 0 0 0 -3.2800000000000002,15.88 A157.85,157.85 0 0 0 131.36000061035156,173.96158874511718 a160.36,160.36 0 0 0 0.81,19.84 c0.33000000000000007,3 0.7000000000000001,5.92 1.1400000000000001,8.6 A60.87,60.87 0 0 0 134.86000061035156,209.8315887451172 a22.27,22.27 0 0 0 5,9.57 A18.37,18.37 0 0 0 142.95000061035154,221.8315887451172 z" style="fill:#263238" id="svg_30"/><path d="M142.36000061035156,221.3915887451172 a0.8400000000000001,0.8400000000000001 0 0 1 -0.27,-0.09000000000000002 l-0.78,-0.32000000000000006 a17.58,17.58 0 0 1 -2.74,-1.6700000000000002 a29.39,29.39 0 0 1 -7.45,-9.11 a96.08,96.08 0 0 1 -7.15,-16 a100.49,100.49 0 0 1 -4.73,-20.88 a103.66,103.66 0 0 1 -0.26,-21.42 a99,99 0 0 1 3.16,-17.21 c0.7100000000000001,-2.39 1.31,-4.57 2,-6.41 s1.23,-3.47 1.83,-4.73 s1,-2.23 1.3,-2.93 c0.15000000000000002,-0.31000000000000005 0.26,-0.56 0.35000000000000003,-0.7600000000000001 a1.57,1.57 0 0 1 0.14,-0.25 a0.93,0.93 0 0 1 -0.09000000000000002,0.27 l-0.30000000000000004,0.78 c-0.29000000000000004,0.7100000000000001 -0.7000000000000001,1.7000000000000002 -1.21,3 s-1.09,2.9 -1.75,4.76 s-1.27,4 -1.9500000000000002,6.41 a100.38,100.38 0 0 0 -3,17.15 a104.23,104.23 0 0 0 0.30000000000000004,21.32 A102.75,102.75 0 0 0 124.36000061035156,194.0815887451172 a99.84,99.84 0 0 0 7,15.94 a30.21,30.21 0 0 0 7.25,9.13 a19.73,19.73 0 0 0 2.67,1.7400000000000002 l0.7500000000000001,0.36000000000000004 z" style="fill:#263238" id="svg_31"/><polygon points="134.5900115966797,144.4716033935547 145.1899871826172,147.26158142089844 143.65000915527344,150.9716033935547 133.6800079345703,148.98158264160156 134.5900115966797,144.4716033935547 " style="fill:#263238" id="svg_32"/><path d="M134.8300006103516,148.02158874511719 a8.58,8.58 0 0 1 1.49,-1.78 l0.18000000000000002,-0.19000000000000003 l0.14,0.22000000000000003 c0.41000000000000003,0.6400000000000001 0.8400000000000001,1.31 1.28,2 l-0.3400000000000001,-0.09000000000000002 l1.18,-0.6700000000000002 c0.41000000000000003,-0.23 0.81,-0.46 1.21,-0.6700000000000002 l0.22000000000000003,-0.13 l0.12000000000000001,0.22000000000000003 l1.15,2.11 l-0.27,-0.07 a8.88,8.88 0 0 1 2.08,-0.92 a8.58,8.58 0 0 1 -1.8900000000000001,1.27 l-0.17,0.1 l-0.1,-0.18000000000000002 c-0.4,-0.6500000000000001 -0.81,-1.34 -1.24,-2.06 l0.35000000000000003,0.1 l-1.21,0.6800000000000002 l-1.18,0.6600000000000001 l-0.22000000000000003,0.12000000000000001 l-0.12000000000000001,-0.21000000000000002 l-1.2,-2.06 l0.32000000000000006,0 A9.73,9.73 0 0 1 134.8300006103516,148.02158874511719 z" style="fill:#5FBFF9" id="svg_33"/><polygon points="47.75001525878906,208.02159118652344 36.21998596191406,186.73158264160156 1.1100006103515625,186.73158264160156 0,188.8415985107422 29.719985961914062,238.25160217285156 63.36000061035156,239.87159729003906 47.75001525878906,208.02159118652344 " style="fill:#455a64" id="svg_34"/><path d="M181.60000061035157,219.7615887451172 v37.21 a22.64,22.64 0 0 1 -8.32,17.52 h0 a22.62,22.62 0 0 1 -22.83,3.42 l-81.92,-36.31 l8,-27.32 l65.9,21.72 L142.36000061035156,219.0615887451172 z" style="fill:#ffbe9d" id="svg_35"/><polygon points="46.63999938964844,210.13157653808594 35.09999084472656,188.8415985107422 0,188.8415985107422 28.599990844726562,240.36158752441406 62.24000549316406,241.98158264160156 46.63999938964844,210.13157653808594 " style="fill:#263238" id="svg_36"/><path d="M79.78000061035158,217.21158874511718 l-5.55,-6.890000000000001 a19.26,19.26 0 0 0 -15,-7.18 H54.36000061035156 L51.07000061035154,206.8315887451172 s-23.74,1 -24.61,4 l0,0.9400000000000001 l0,0.56 l20.31,1.36 s-17.27,-0.05000000000000001 -18.31,0 s-4.82,-0.29000000000000004 -4.74,1.73 c0.06000000000000001,1.6700000000000002 2,3 5,3.42 c1.22,0.18000000000000002 16.19,1.48 16.19,1.48 l-16.47,-0.16000000000000003 c-1.85,0 -1.62,3 -0.52,3.33 c0.8700000000000001,0.29000000000000004 22,6.45 22,6.45 s-3.55,2.37 -6.44,2.17 s-7.86,-3.93 -8.89,-2.17 s-0.8300000000000001,2.79 -0.21000000000000002,3.2 s7.44,3.93 9.72,4.55 s20.85,3.56 20.85,3.56 l6.7,1.08 z" style="fill:#ffbe9d" id="svg_37"/><path d="M4.910000610351574,197.15158874511718 s-3.67,1.28 -1.81,6 a40.37,40.37 0 0 0 7.45,11.8 a4.3100000000000005,4.3100000000000005 0 0 0 1.47,4.22 s-2.6,0.6500000000000001 -1,5 a4.94,4.94 0 0 0 3.09,6.5 s-1.3,3.74 3.41,5.52 s9.26,-1.3 9.26,-1.3 z" style="fill:#ffbe9d" id="svg_38"/><path d="M12.360000610351562,214.5815887451172 c3.34,0.9 7,1.62 10.09,2.79 c1,0.38000000000000006 2,0.4 2.7,1.25 a2.33,2.33 0 0 1 0.06000000000000001,3 a3.25,3.25 0 0 1 -2.72,0.55 a48,48 0 0 1 -10.34,-2.87 " style="fill:#ffbe9d" id="svg_39"/><path d="M13.690000610351547,220.15158874511718 c3.33,0.9 7,1.61 10.08,2.79 c1,0.38000000000000006 2,0.4 2.7,1.25 a2.33,2.33 0 0 1 0.06000000000000001,3 a3.29,3.29 0 0 1 -2.72,0.55 A48.57,48.57 0 0 1 13.470000610351576,224.8315887451172 " style="fill:#ffbe9d" id="svg_40"/><path d="M15.58000061035159,225.8815887451172 c3.34,0.9 7,1.61 10.09,2.7800000000000002 c1,0.39000000000000007 2,0.41000000000000003 2.6900000000000004,1.26 a2.3200000000000003,2.3200000000000003 0 0 1 0.06000000000000001,3 a3.22,3.22 0 0 1 -2.71,0.54 A48,48 0 0 1 15.360000610351562,230.5815887451172 " style="fill:#ffbe9d" id="svg_41"/><path d="M12.360000610351562,219.40158874511718 c0,-0.14 2.41,0.6800000000000002 5.37,1.5 s5.39,1.35 5.37,1.49 a19.75,19.75 0 0 1 -5.51,-1 A20.59,20.59 0 0 1 12.360000610351562,219.40158874511718 z" style="fill:#eb996e" id="svg_42"/><path d="M11.720000610351576,224.3115887451172 a61.43,61.43 0 0 1 6.1,1.7400000000000002 c3.36,1 6.11,1.6900000000000002 6.08,1.83 a43.67,43.67 0 0 1 -12.18,-3.5700000000000003 z" style="fill:#eb996e" id="svg_43"/><path d="M13.910000610351574,230.6315887451172 a33,33 0 0 1 5.73,1.1600000000000001 a34.11,34.11 0 0 1 5.61,1.6700000000000002 a32.85,32.85 0 0 1 -5.73,-1.1600000000000001 A32.28,32.28 0 0 1 13.910000610351574,230.6315887451172 z" style="fill:#eb996e" id="svg_44"/><path d="M9.58000061035159,213.90158874511718 c0,-0.15000000000000002 3,0.8500000000000001 6.73,1.81 s6.78,1.52 6.76,1.6800000000000002 a8.19,8.19 0 0 1 -2,-0.17 a48.32,48.32 0 0 1 -4.84,-1 a46,46 0 0 1 -4.73,-1.47 A7.68,7.68 0 0 1 9.58000061035159,213.90158874511718 z" style="fill:#eb996e" id="svg_45"/><path d="M42.99000061035156,207.15158874511718 A67.35,67.35 0 0 1 51.36000061035156,206.8315887451172 a67.19,67.19 0 0 1 8.33,0.21000000000000002 a66.08,66.08 0 0 1 -8.33,0.31000000000000005 A65.93,65.93 0 0 1 42.99000061035156,207.15158874511718 z" style="fill:#eb996e" id="svg_46"/><path d="M17.820000610351542,197.8315887451172 a1.7600000000000002,1.7600000000000002 0 1 0 -0.27,-2.48 A1.7600000000000002,1.7600000000000002 0 0 0 17.820000610351542,197.8315887451172 z" style="fill:#ebebeb" id="svg_47"/><path d="M138.16000061035157,235.04158874511717 a2.08,2.08 0 0 1 0.81,0.09000000000000002 a15.85,15.85 0 0 1 2.15,0.54 a24.67,24.67 0 0 1 11.870000000000001,8.24 a16.8,16.8 0 0 1 1.26,1.82 c0.27,0.45 0.4,0.7000000000000001 0.37000000000000005,0.7200000000000001 s-0.7100000000000001,-0.91 -1.92,-2.31 a28.24,28.24 0 0 0 -11.7,-8.12 C139.26000061035154,235.3815887451172 138.14000061035154,235.1215887451172 138.16000061035157,235.04158874511717 z" style="fill:#eb996e" id="svg_48"/><path d="M93.47000061035158,136.47158874511717 h0 a20.05,20.05 0 0 1 -18.43,-21 c0.37000000000000005,-7.6 0.77,-14.45 0.77,-14.45 s-16.3,-2.54 -16.5,-18.82 s2.63,-53.7 2.63,-53.7 h0 a56.61,56.61 0 0 1 56.88,7.16 l2.41,1.85 l-6.17,80.49 A20.06,20.06 0 0 1 93.47000061035158,136.47158874511717 z" style="fill:#ffbe9d" id="svg_49"/><path d="M75.78000061035158,100.83158874511719 a37.86,37.86 0 0 0 21.23,-6 s-5,11.72 -21.27,10.25 z" style="fill:#eb996e" id="svg_50"/><path d="M65.96000061035159,54.041588745117195 a2.3200000000000003,2.3200000000000003 0 0 0 2.24,2.35 a2.23,2.23 0 0 0 2.4,-2.1 a2.34,2.34 0 0 0 -2.24,-2.35 A2.23,2.23 0 0 0 65.96000061035159,54.041588745117195 z" style="fill:#263238" id="svg_51"/><path d="M65.02000061035159,51.43158874511718 c0.29000000000000004,0.30000000000000004 2,-1 4.55,-1 s4.34,1.26 4.61,1 c0.13,-0.14 -0.16000000000000003,-0.6900000000000002 -1,-1.27 a6.44,6.44 0 0 0 -3.6900000000000004,-1.1400000000000001 a6.16,6.16 0 0 0 -3.62,1.17 C65.14000061035154,50.741588745117184 64.88000061035154,51.291588745117195 65.02000061035159,51.43158874511718 z" style="fill:#263238" id="svg_52"/><path d="M89.56000061035155,54.6315887451172 a2.33,2.33 0 0 0 2.24,2.35 a2.22,2.22 0 0 0 2.4,-2.1 a2.33,2.33 0 0 0 -2.24,-2.35 A2.22,2.22 0 0 0 89.56000061035155,54.6315887451172 z" style="fill:#263238" id="svg_53"/><path d="M89.62000061035155,51.90158874511718 c0.29000000000000004,0.30000000000000004 2.06,-1 4.5600000000000005,-1 s4.33,1.26 4.61,1 c0.13,-0.13 -0.16000000000000003,-0.6800000000000002 -1,-1.26 a6.36,6.36 0 0 0 -3.6900000000000004,-1.1400000000000001 a6.15,6.15 0 0 0 -3.63,1.17 C89.74000061035156,51.21158874511718 89.48000061035157,51.761588745117194 89.62000061035155,51.90158874511718 z" style="fill:#263238" id="svg_54"/><path d="M80.54000061035157,70.46158874511718 c0,-0.14 -1.55,-0.41000000000000003 -4.07,-0.7300000000000001 c-0.6400000000000001,-0.07 -1.24,-0.2 -1.35,-0.6300000000000001 a3.26,3.26 0 0 1 0.43000000000000005,-1.9 l1.8900000000000001,-4.87 c2.62,-6.93 4.52,-12.620000000000001 4.24,-12.73 s-2.63,5.43 -5.26,12.36 q-0.9400000000000001,2.56 -1.81,4.9 a3.75,3.75 0 0 0 -0.33000000000000007,2.51 a1.58,1.58 0 0 0 1.05,0.93 a4.17,4.17 0 0 0 1.09,0.15000000000000002 C78.96000061035159,70.59158874511718 80.53000061035158,70.6015887451172 80.54000061035157,70.46158874511718 z" style="fill:#263238" id="svg_55"/><path d="M87.91000061035157,72.1915887451172 c-0.41000000000000003,0 -0.42000000000000004,2.6900000000000004 -2.74,4.62 s-5.22,1.6300000000000001 -5.24,2 c0,0.17 0.6400000000000001,0.53 1.87,0.56 a6.75,6.75 0 0 0 4.37,-1.52 a5.86,5.86 0 0 0 2.12,-3.88 C88.36000061035156,72.83158874511719 88.09000061035158,72.17158874511719 87.91000061035157,72.1915887451172 z" style="fill:#263238" id="svg_56"/><path d="M88.98000061035157,42.09158874511718 c0.24000000000000002,0.6800000000000002 2.74,0.35000000000000003 5.68,0.7100000000000001 s5.3100000000000005,1.15 5.7,0.54 c0.17,-0.29000000000000004 -0.24000000000000002,-0.93 -1.2,-1.59 a9.48,9.48 0 0 0 -4.22,-1.48 a9.65,9.65 0 0 0 -4.45,0.52 C89.41000061035157,41.23158874511719 88.87000061035155,41.761588745117194 88.98000061035157,42.09158874511718 z" style="fill:#263238" id="svg_57"/><path d="M65.94000061035155,44.18158874511718 c0.44000000000000006,0.5700000000000001 2.16,0 4.24,0 s3.83,0.39000000000000007 4.23,-0.21000000000000002 c0.18000000000000002,-0.29000000000000004 -0.1,-0.8600000000000001 -0.8700000000000001,-1.3900000000000001 a6.09,6.09 0 0 0 -6.82,0.21000000000000002 C65.99000061035156,43.3215887451172 65.74000061035156,43.9115887451172 65.94000061035155,44.18158874511718 z" style="fill:#263238" id="svg_58"/><path d="M119.23000061035157,54.39158874511719 c0.27,-0.12000000000000001 11.19,-3.31 10.83,7.83 s-11.46,8.48 -11.47,8.16 S119.23000061035157,54.39158874511719 119.23000061035157,54.39158874511719 z" style="fill:#ffbe9d" id="svg_59"/><path d="M122.13000061035154,66.27158874511719 c0.05000000000000001,0 0.19000000000000003,0.14 0.51,0.30000000000000004 a1.9100000000000001,1.9100000000000001 0 0 0 1.45,0.08000000000000002 c1.19,-0.39000000000000007 2.24,-2.23 2.36,-4.23 a6.33,6.33 0 0 0 -0.46,-2.8 a2.24,2.24 0 0 0 -1.4100000000000001,-1.54 a1,1 0 0 0 -1.1600000000000001,0.5 c-0.16000000000000003,0.31000000000000005 -0.1,0.53 -0.16000000000000003,0.55 s-0.23,-0.2 -0.13,-0.6500000000000001 a1.32,1.32 0 0 1 0.47000000000000003,-0.6900000000000002 a1.49,1.49 0 0 1 1.08,-0.25 a2.7600000000000002,2.7600000000000002 0 0 1 2,1.8 a6.57,6.57 0 0 1 0.5700000000000001,3.12 c-0.14,2.24 -1.36,4.3100000000000005 -3,4.72 a2.1,2.1 0 0 1 -1.77,-0.35000000000000003 C122.14000061035154,66.5415887451172 122.09000061035158,66.2915887451172 122.13000061035154,66.27158874511719 z" style="fill:#eb996e" id="svg_60"/><path d="M55.70000061035154,14.441588745117201 a17.23,17.23 0 0 1 26.75,-5.14 a16.86,16.86 0 0 1 27.71,-3.6 c3.12,3.54 4.74,8.35 8.4,11.33 c3.16,2.5700000000000003 7.46,3.43 10.64,6 a12.3,12.3 0 0 1 -4.39,21.44 c3.5,6.3 0.22000000000000003,15.33 -6.5,17.93 l-1.62,-0.6700000000000002 A23.18,23.18 0 0 1 113.36000061035156,36.14158874511719 a5.83,5.83 0 0 1 -0.5900000000000001,0 a13,13 0 0 1 -16.94,-3.87 a14.46,14.46 0 0 1 -15.52,0.6500000000000001 a6,6 0 0 0 -2.34,-1.06 a5.58,5.58 0 0 0 -2.92,0.8700000000000001 a13.7,13.7 0 0 1 -7.88,1.59 a7.59,7.59 0 0 1 -5.92,-4.23 a1.25,1.25 0 0 1 -0.19000000000000003,0 a8.75,8.75 0 0 1 -6.52,-6.3100000000000005 A13.07,13.07 0 0 1 55.70000061035154,14.441588745117201 z" style="fill:#263238" id="svg_61"/></g></g></svg>